<svg width="382" height="383" viewBox="0 0 382 383" fill="none" xmlns="http://www.w3.org/2000/svg">
<path d="M169.765 328.174C169.739 327.491 169.978 326.825 170.431 326.313C170.884 325.801 171.517 325.484 172.198 325.426L174.721 325.426L176.748 325.426L178.776 325.426C179.089 325.38 179.408 325.38 179.722 325.426L179.947 325.426C180.574 325.503 181.172 325.737 181.684 326.108C182.196 326.478 182.606 326.972 182.875 327.544C183.493 328.546 184.049 329.584 184.542 330.652C184.813 331.148 185.038 331.734 185.308 332.139C185.63 332.722 185.916 333.324 186.164 333.941C186.39 334.347 186.615 334.797 186.795 335.203C186.975 335.608 187.561 336.825 188.147 337.681C188.568 338.457 189.152 339.134 189.859 339.663C190.485 339.985 191.183 340.14 191.886 340.114L198.644 340.114C199.563 340.075 200.465 339.861 201.303 339.483C202.063 339.147 202.684 338.558 203.06 337.816C203.512 337.283 203.863 336.672 204.096 336.014C204.454 335.251 204.77 334.469 205.042 333.671C205.448 332.59 205.853 331.418 206.349 330.337C206.473 329.829 206.639 329.331 206.844 328.85L206.844 327.859C207.163 327.009 207.62 326.217 208.196 325.516C208.682 325.009 209.342 324.703 210.043 324.66L216.441 324.66C216.902 324.572 217.376 324.572 217.838 324.66C218.297 324.707 218.732 324.89 219.086 325.188C219.44 325.485 219.696 325.882 219.82 326.327C220.135 327.339 220.135 328.424 219.82 329.436C219.555 330.532 219.193 331.603 218.739 332.635L218.739 333.491C218.153 335.473 217.387 337.411 216.666 339.393L216.396 340.609C215.675 342.592 215.089 344.529 214.278 346.466L213.603 347.998C212.611 351.332 211.395 354.441 210.223 357.505L209.232 360.208C207.745 363.908 206.452 367.682 205.358 371.517C205.077 372.57 204.7 373.596 204.231 374.58C204.027 375.231 203.771 375.864 203.465 376.473C203.465 376.968 203.15 377.239 202.97 377.824C202.491 378.601 201.932 379.326 201.303 379.987C200.823 380.705 200.173 381.293 199.41 381.699C198.998 382.091 198.482 382.357 197.924 382.465L196.076 382.465L194.635 382.465C193.919 382.456 193.218 382.26 192.601 381.897C191.985 381.533 191.474 381.014 191.12 380.392C190.265 379.178 189.596 377.841 189.138 376.428C188.294 374.053 187.332 371.722 186.255 369.444C185.579 367.642 184.858 365.885 184.002 363.542C183.686 362.371 183.146 361.154 182.74 360.028L182.2 358.721C181.524 356.964 180.668 355.117 179.541 352.819C179.498 352.611 179.498 352.396 179.541 352.188C178.911 350.882 178.46 349.485 177.829 348.179C177.199 346.872 177.154 346.557 176.883 345.701C176.419 344.474 175.861 343.284 175.216 342.141C174.593 340.934 174.095 339.666 173.729 338.357C173.369 337.726 173.189 337.05 172.873 336.419C172.288 334.842 171.567 333.311 171.026 331.914L170.35 330.472L170.35 330.112C170.233 329.914 170.143 329.702 170.08 329.481C169.81 329.102 169.697 328.634 169.765 328.174V328.174ZM193.193 351.558L193.193 351.918C193.323 352.189 193.414 352.477 193.463 352.774C193.824 353.675 194.184 355.387 194.545 356.243C194.706 356.884 194.902 357.515 195.13 358.136C195.13 358.541 195.491 358.992 195.806 359.487C195.893 359.543 195.995 359.573 196.099 359.573C196.203 359.573 196.304 359.543 196.392 359.487C196.433 359.371 196.433 359.243 196.392 359.127C197.113 356.874 197.698 353.9 198.419 351.648L198.419 350.927C198.419 350.927 198.419 350.927 198.419 350.657C198.048 350.58 197.664 350.58 197.293 350.657L196.797 350.657C196.174 350.867 195.517 350.958 194.86 350.927C194.395 350.971 193.928 350.971 193.463 350.927L193.193 350.927L193.193 351.558Z" fill="black"/>
<path d="M156.969 362.416C156.729 363.532 156.413 364.631 156.023 365.705L155.798 366.516C155.798 366.786 155.527 367.101 155.437 367.372C155.347 367.642 155.167 368.048 155.077 368.318L154.086 371.562C153.635 372.868 153.23 374.085 152.914 375.211C152.599 376.338 152.554 376.067 152.374 376.563C152.115 377.058 151.727 377.474 151.251 377.768C150.775 378.061 150.229 378.221 149.67 378.23C149.163 378.306 148.646 378.306 148.139 378.23L138.227 374.986L137.326 374.716L134.352 373.86C133.265 373.546 132.197 373.17 131.153 372.733C129.974 372.324 128.854 371.764 127.819 371.066C126.267 370.143 124.991 368.821 124.125 367.237C123.457 366.496 122.992 365.596 122.773 364.623L122.548 364.173C122.522 364.039 122.522 363.901 122.548 363.767L122.548 363.497C122.548 363.227 122.277 362.911 122.097 362.641C121.658 360.751 121.446 358.815 121.466 356.874V356.874C121.359 355.919 121.451 354.953 121.737 354.036C121.766 353.676 121.766 353.314 121.737 352.954L121.737 352.233C121.67 351.952 121.67 351.659 121.737 351.377C121.818 351.034 121.939 350.701 122.097 350.386C122.521 348.9 123.225 347.509 124.17 346.286C124.375 346.05 124.556 345.793 124.71 345.52L124.71 345.295C125.053 344.607 125.445 343.945 125.882 343.313C127.808 341.137 130.214 339.44 132.91 338.357C134.157 337.709 135.568 337.443 136.965 337.591V337.591C137.949 337.55 138.934 337.641 139.894 337.861L140.209 337.861C140.84 337.861 141.516 338.086 142.236 338.222L143.183 338.222L145.075 338.582L145.345 338.582L148.319 339.348C148.713 339.398 149.114 339.341 149.479 339.183C149.844 339.024 150.159 338.77 150.391 338.447C150.732 337.858 151.018 337.24 151.247 336.6L153.906 327.859L155.302 323.354C155.487 322.766 155.777 322.216 156.158 321.732C156.415 321.356 156.785 321.071 157.213 320.917C157.642 320.763 158.109 320.749 158.546 320.876C158.546 320.876 158.907 320.876 159.042 320.876L165.259 323.038C165.859 323.176 166.388 323.529 166.746 324.029C167.028 324.267 167.241 324.577 167.36 324.927C167.479 325.276 167.5 325.651 167.422 326.012L166.881 329.121C166.521 330.427 166.115 331.824 165.755 333.04L165.755 333.536L165.259 334.707C165.143 334.873 165.051 335.055 164.989 335.248L164.989 335.518L164.989 336.194C164.824 337.143 164.583 338.077 164.268 338.988L164.268 339.483L161.565 348.494L159.853 354.036C159.267 356.018 158.771 357.91 158.141 359.893C157.375 360.749 157.194 361.605 156.969 362.416ZM138.947 361.965L139.713 362.281C140.555 362.506 141.414 362.656 142.282 362.731C142.551 362.78 142.828 362.745 143.078 362.633C143.327 362.52 143.537 362.335 143.678 362.1C143.933 361.834 144.119 361.509 144.219 361.154L144.759 359.442C145.03 358.676 145.21 358.045 145.435 357.46L145.661 356.469L145.661 355.703L146.111 354.261C146.182 353.991 146.158 353.705 146.043 353.451C145.928 353.196 145.73 352.989 145.48 352.864C145.028 352.57 144.545 352.329 144.039 352.143L143.318 351.783C143.216 351.745 143.104 351.745 143.002 351.783C142.283 351.681 141.575 351.515 140.885 351.287L140.344 351.287C140.165 351.258 139.983 351.258 139.804 351.287C139.399 351.254 138.992 351.254 138.587 351.287L138.001 351.287C137.637 351.095 137.24 350.973 136.83 350.927C136.324 351.252 135.893 351.682 135.568 352.188C134.973 352.935 134.571 353.817 134.397 354.757L133.946 357.054L133.946 357.955C134.026 358.664 134.274 359.343 134.667 359.938V359.938C135.35 360.551 136.146 361.025 137.01 361.334L137.371 361.334L138.227 361.74L138.947 361.965Z" fill="black"/>
<path d="M96.7317 290.96C97.0857 290.47 97.6093 290.129 98.2007 290.004C98.792 289.879 99.4086 289.979 99.9305 290.284C100.236 290.372 100.525 290.509 100.787 290.689L101.823 291.455L104.391 293.122L105.472 293.663C105.856 293.916 106.205 294.219 106.508 294.564L106.689 294.834C107.182 295.123 107.565 295.567 107.777 296.098C107.989 296.628 108.018 297.214 107.86 297.763C107.905 297.971 107.905 298.186 107.86 298.394C107.994 299.017 107.994 299.662 107.86 300.286C107.752 300.821 107.752 301.373 107.86 301.908C107.813 302.282 107.813 302.66 107.86 303.034L107.545 306.143C107.545 308.08 107.184 310.108 106.914 312C106.772 312.834 106.697 313.677 106.689 314.523C106.666 314.838 106.666 315.154 106.689 315.469C106.664 315.526 106.651 315.587 106.651 315.649C106.651 315.711 106.664 315.773 106.689 315.83L106.689 316.641C106.645 317.06 106.645 317.483 106.689 317.902C106.602 318.288 106.602 318.688 106.689 319.074C106.841 319.362 107.076 319.597 107.364 319.749C107.689 319.968 108.036 320.149 108.401 320.29C108.401 320.29 108.671 320.29 108.941 319.839L108.941 319.569C110.068 318.217 111.104 316.686 112.185 315.064C112.501 314.613 112.771 313.982 113.176 313.397L114.303 311.73C115.339 310.243 116.511 308.801 117.457 307.224C117.823 306.677 118.318 306.228 118.898 305.918C119.214 305.566 119.635 305.327 120.099 305.238C120.563 305.148 121.043 305.213 121.466 305.422C121.713 305.628 122.007 305.767 122.323 305.828L124.665 307.45C125.606 308.071 126.509 308.748 127.369 309.477C127.946 309.85 128.437 310.342 128.81 310.919C129.024 311.188 129.172 311.503 129.242 311.839C129.313 312.176 129.304 312.524 129.216 312.856C129.075 313.257 128.878 313.636 128.63 313.982L126.468 317.091L123.674 321.191L120.701 325.696C120.701 326.012 120.115 326.417 119.89 326.778C119.729 327.031 119.532 327.259 119.304 327.454V327.454L118.853 328.084C117.862 329.796 116.781 331.328 115.79 332.815L115.069 333.806L111.329 339.258L109.077 342.547L107.635 344.619C107.094 345.385 106.554 346.151 106.013 347.007L105.697 347.413C105.283 347.949 104.977 348.561 104.796 349.215C104.584 349.729 104.223 350.168 103.76 350.476C103.282 350.953 102.859 351.482 102.499 352.053L102.138 352.549L100.291 355.432L99.6151 356.424C99.2779 356.932 98.8504 357.375 98.3536 357.73C97.6589 358.215 96.8018 358.409 95.9657 358.271C95.2409 358.056 94.545 357.753 93.8933 357.37L93.5328 357.37L92.9922 356.964L92.2713 356.514C91.8186 356.228 91.409 355.879 91.0548 355.477C90.0107 354.934 89.0158 354.301 88.0813 353.585L86.5945 352.549L85.1077 351.558L84.0264 350.792L82.9451 350.071L81.0077 348.719L80.6473 348.494C78.8898 347.272 77.3642 345.746 76.1419 343.989L75.5561 342.952C75.5289 342.693 75.4358 342.445 75.2858 342.231C74.2115 340.68 73.6162 338.847 73.5738 336.96C73.5738 336.96 73.5738 336.464 73.5738 336.374C73.352 333.658 73.7686 330.927 74.7902 328.4C75.1479 327.368 75.5692 326.36 76.0517 325.381C77.1481 323.122 78.6791 321.101 80.5572 319.434C82.5301 317.29 85.0554 315.731 87.856 314.929V314.929L88.667 314.883C89.7173 314.375 90.8011 313.938 91.9109 313.577C92.1749 313.567 92.426 313.46 92.6169 313.278C92.8079 313.095 92.9253 312.849 92.9471 312.586C93.2174 311.459 93.4878 310.243 93.6229 309.207L94.1636 306.864C94.2913 306.271 94.3667 305.668 94.3889 305.062C94.3889 305.062 94.8844 299.475 95.2449 298.213C95.1316 297.618 95.1316 297.007 95.2449 296.411C95.4067 295.687 95.4823 294.946 95.4702 294.204C95.6194 293.035 96.0525 291.922 96.7317 290.96V290.96ZM87.1351 332.68C87.0033 333.105 87.0033 333.561 87.1351 333.986C87.1351 334.527 87.1351 334.978 87.1351 335.293C87.1611 335.542 87.2387 335.783 87.3628 336C87.4869 336.217 87.6548 336.406 87.856 336.555C88.4558 337.606 89.3272 338.478 90.379 339.078L91.235 339.663L91.8658 340.024L93.1724 340.88C93.8933 341.375 94.2086 341.285 94.6592 340.609L95.2449 339.798C95.8025 339.219 96.3006 338.585 96.7317 337.906L97.7679 336.374C98.5789 335.203 99.525 333.806 100.201 332.635L100.201 332.319C100.19 332.23 100.155 332.144 100.1 332.073C100.044 332.001 99.9701 331.946 99.8855 331.914L99.0294 331.328L97.6778 330.382L97.2723 330.112C96.6753 329.646 96.0249 329.253 95.335 328.94C94.7042 328.49 93.9383 328.174 93.3075 327.724C93.0317 327.525 92.7016 327.415 92.3614 327.409C91.362 327.6 90.4569 328.124 89.7933 328.895C88.5931 329.904 87.6769 331.209 87.1351 332.68Z" fill="black"/>
<path d="M59.1113 319.073C58.4198 319.948 57.5813 320.695 56.6333 321.281L55.9575 321.822C55.6977 322.04 55.4098 322.221 55.1015 322.362L54.7861 322.362C54.2959 322.648 53.725 322.762 53.1627 322.689C52.6003 322.616 52.078 322.358 51.6773 321.957C51.4386 321.874 51.2332 321.716 51.0917 321.506L50.1005 320.425L48.028 318.127L47.217 317.271C46.672 316.743 46.3426 316.031 46.2926 315.273C46.2427 314.516 46.4757 313.767 46.9466 313.171C47.3071 312.631 47.7576 312.135 48.1181 311.685L48.5686 311.189C49.6561 309.809 50.8787 308.541 52.218 307.404L53.029 306.684L55.0114 304.881C56.8135 303.259 58.7058 301.547 60.5981 299.925C63.5266 297.673 66.1848 295.42 68.7529 292.852L72.3573 289.608C74.5649 287.716 76.8627 285.688 78.8902 283.706L82.3593 280.552L84.0263 279.065L84.8373 278.344C85.6166 277.685 86.6099 277.332 87.6307 277.353C88.3911 277.486 89.1048 277.812 89.7032 278.299L90.0636 278.75L93.9833 283.345L94.2987 283.345C94.8057 283.881 95.0883 284.59 95.0883 285.328C95.0883 286.065 94.8057 286.775 94.2987 287.31L93.0823 288.437L83.1252 297.447L78.6198 301.592L75.8715 304.07L73.1682 306.458L65.1936 313.622L61.2739 317.181L59.4717 318.893L59.1113 319.073Z" fill="black"/>
<path d="M62.3552 283.345C60.7702 284.135 59.2619 285.07 57.8498 286.139C57.303 286.546 56.7138 286.894 56.0927 287.175L52.8488 289.022L47.0368 292.356L41.3149 295.78L40.4138 296.276C39.3365 296.991 38.1892 297.595 36.9896 298.078C36.9896 298.078 36.6743 298.078 36.494 298.394L36.0435 298.394L35.1875 298.799C34.8344 298.945 34.4496 298.997 34.0705 298.949C33.6914 298.902 33.3312 298.757 33.0249 298.529C32.2819 297.841 31.6032 297.087 30.9974 296.276L30.9974 295.961C30.7865 295.371 30.5305 294.799 30.2315 294.249L29.3304 292.762L29.015 292.176C28.6915 291.618 28.5441 290.975 28.5924 290.332C28.6406 289.689 28.8822 289.075 29.2854 288.572C29.7712 288.059 30.3156 287.606 30.9073 287.22L35.4128 284.607L37.8006 283.165L40.594 281.543L45.3697 278.84C45.8025 278.552 46.2723 278.325 46.7664 278.164C47.1884 277.94 47.6249 277.744 48.073 277.578C48.4631 277.371 48.8139 277.096 49.1093 276.768C49.3397 276.667 49.53 276.493 49.6499 276.272V276.272L50.4609 275.776C52.6552 274.738 54.791 273.58 56.8586 272.307L58.886 271.091C60.028 270.453 61.1001 269.698 62.0849 268.838C62.7232 268.484 63.3401 268.093 63.9321 267.667L64.5178 267.261L64.5178 266.946C64.8332 266.946 64.9233 266.63 64.5178 265.864L64.5178 265.414C63.3915 263.522 62.2651 261.494 61.2739 259.557L60.5531 258.16L59.4267 256.403C59.4267 256.403 59.4267 256.403 59.1564 256.133C58.8922 255.697 58.7186 255.213 58.6459 254.709C58.5733 254.205 58.603 253.692 58.7334 253.2C58.8638 252.708 59.0922 252.247 59.4048 251.845C59.7175 251.443 60.108 251.109 60.5531 250.861C60.9571 250.58 61.3784 250.324 61.8146 250.095L62.4003 249.735L63.3014 249.239L65.0585 248.158C65.496 247.921 65.9473 247.71 66.4101 247.527C66.8868 247.351 67.4062 247.326 67.8979 247.455C68.3895 247.584 68.8295 247.861 69.1584 248.248C69.5765 248.616 69.9406 249.04 70.2397 249.51L72.8529 254.015L74.1594 256.223C74.1594 256.493 74.1594 256.583 74.1594 256.763C74.61 257.755 75.0605 258.656 75.6012 259.602L76.9528 260.818L77.3133 261.404C78.4396 263.522 79.9264 265.909 81.1429 268.568L81.5934 269.469C81.6608 269.833 81.6474 270.207 81.5539 270.565C81.4605 270.923 81.2894 271.257 81.0527 271.541V271.541L80.422 272.172C79.8363 272.668 79.1154 273.298 78.3946 273.794L77.6737 274.244L76.5924 274.965C76.5924 275.281 76.0067 275.371 75.6462 275.596C73.3485 276.722 71.1408 278.029 69.2035 279.291L68.2123 279.876L66.5453 280.867C65.7348 281.49 64.876 282.048 63.9772 282.534L63.1212 283.03C62.8997 283.204 62.6347 283.313 62.3552 283.345V283.345Z" fill="black"/>
<path d="M53.2994 175.215C53.9858 175.152 54.6693 175.363 55.201 175.802C55.7326 176.241 56.0693 176.872 56.1378 177.558L56.1378 180.081L56.1378 182.063L56.1378 182.739L56.1378 184.181C56.1783 184.495 56.1783 184.813 56.1378 185.127V185.127C56.1032 185.749 55.9061 186.351 55.5662 186.872C55.2262 187.394 54.7553 187.818 54.2004 188.101L51.1367 189.903C50.622 190.136 50.1251 190.407 49.6499 190.714C49.0981 191.076 48.509 191.378 47.8928 191.615C47.4972 191.884 47.0744 192.11 46.6313 192.291C45.8654 192.786 45.0544 193.102 44.1984 193.732C43.4637 194.214 42.8226 194.824 42.3061 195.534C42.0192 196.17 41.8953 196.867 41.9456 197.562L41.9456 198.463L41.9456 204.365C42.0348 205.277 42.2946 206.163 42.7116 206.978C43.0847 207.717 43.6847 208.317 44.4236 208.69C44.9945 209.087 45.6157 209.405 46.2709 209.636C46.9467 209.952 47.8478 210.177 48.6588 210.493L52.6235 211.709L54.1103 212.205L55.1015 212.205C55.9814 212.476 56.8054 212.904 57.5344 213.466C58.0417 213.939 58.3617 214.579 58.4355 215.268L58.4355 215.944L58.7059 221.531C58.773 221.994 58.773 222.464 58.7059 222.928C58.6741 223.396 58.5026 223.843 58.2134 224.213C57.9242 224.583 57.5307 224.857 57.0839 225C56.0721 225.318 54.987 225.318 53.9752 225C52.8783 224.741 51.7956 224.425 50.7313 224.054L49.8752 224.054C47.8928 223.558 45.9104 222.882 43.883 222.207L42.6665 222.207C40.6841 221.531 38.7018 220.99 36.7644 220.269L35.1875 219.639C31.8084 218.783 28.6546 217.701 25.5459 216.665L22.7976 215.764C19.0597 214.414 15.2551 213.256 11.3988 212.295C10.3383 212.046 9.29895 211.714 8.29011 211.303C7.56924 211.303 6.89343 210.808 6.35278 210.628L4.95607 210.132C4.19761 209.815 3.47308 209.423 2.79348 208.961C2.0753 208.486 1.47444 207.854 1.03637 207.113C0.642489 206.66 0.405481 206.091 0.360545 205.491C0.319112 204.876 0.319112 204.259 0.360545 203.644C0.360545 203.149 0.360545 202.653 0.360545 202.203C0.342919 201.491 0.512659 200.788 0.852708 200.164C1.19276 199.539 1.69115 199.014 2.29788 198.643C3.47208 197.73 4.77864 197 6.17255 196.481C8.53312 195.59 10.8354 194.551 13.0659 193.372L18.8779 190.894C20.0042 190.533 21.2207 189.948 22.347 189.497L23.6086 188.912C25.3657 188.146 27.1678 187.244 29.4206 186.028C29.63 186.003 29.8418 186.003 30.0513 186.028C31.3128 185.397 32.7095 184.857 33.9711 184.181C35.2326 183.505 35.593 183.46 36.4491 183.19C37.647 182.655 38.8062 182.038 39.9182 181.342C41.1211 180.719 42.3715 180.191 43.6577 179.765C44.2885 179.36 44.9192 179.18 45.55 178.819L50.0554 176.792L51.4521 176.071L51.8126 176.071C52.0142 175.962 52.2253 175.872 52.4433 175.801C52.6651 175.526 52.9628 175.322 53.2994 175.215V175.215ZM30.7722 199.634L30.4118 199.634C30.137 199.766 29.8504 199.872 29.5557 199.95C28.6546 200.355 26.9426 200.761 26.0865 201.166C25.2305 201.572 24.825 201.527 24.2393 201.797L22.9328 202.518C22.8765 202.605 22.8466 202.707 22.8466 202.811C22.8466 202.915 22.8765 203.016 22.9328 203.104C23.0494 203.145 23.1766 203.145 23.2932 203.104C25.5909 203.734 28.5645 204.23 30.8623 204.861L31.2678 204.861C31.2678 204.861 31.2678 204.861 31.5381 204.861C31.6146 204.489 31.6146 204.106 31.5381 203.734L31.5381 203.329C31.302 202.663 31.1801 201.963 31.1777 201.256C31.1353 200.807 31.1353 200.354 31.1777 199.905L31.1777 199.589L30.7722 199.634Z" fill="black"/>
<path d="M18.6075 163.861C17.4783 163.671 16.3641 163.4 15.2735 163.05L14.4625 163.05L13.5615 162.78L12.6153 162.42L9.32634 161.563L5.67695 160.527L4.28025 160.032C3.77212 159.804 3.33803 159.439 3.0274 158.977C2.71676 158.515 2.54204 157.975 2.52313 157.418C2.41997 156.913 2.41997 156.392 2.52313 155.887L5.31651 145.479L5.31651 144.578C5.58684 143.587 5.76707 142.596 6.0374 141.559C6.30773 140.523 6.71318 139.352 7.02857 138.315C7.41421 137.129 7.94382 135.994 8.60549 134.936C9.46202 133.333 10.7393 131.994 12.2999 131.062C12.9936 130.36 13.8661 129.861 14.823 129.62L15.2735 129.35L15.679 129.35L15.9493 129.35L16.8054 128.899C18.6658 128.359 20.5903 128.071 22.5273 128.043V128.043C23.463 127.845 24.4299 127.845 25.3657 128.043L26.447 128.043L27.1678 128.043C27.4486 127.971 27.7431 127.971 28.0239 128.043C28.3827 128.121 28.7307 128.242 29.0601 128.404C30.5644 128.762 31.9865 129.404 33.2502 130.296L33.7458 130.566C34.4526 130.883 35.1309 131.26 35.7732 131.692C38.0075 133.525 39.7819 135.855 40.9545 138.496C41.6831 139.716 42.0137 141.134 41.9006 142.551V142.551C42.0564 143.521 42.0564 144.509 41.9006 145.479L41.9006 145.84C41.9006 146.47 41.9006 147.146 41.6303 147.867C41.3599 148.588 41.6303 148.408 41.6303 148.768L41.36 150.705L41.36 151.021C41.36 152.012 40.9545 152.958 40.7292 153.949C40.6883 154.352 40.7591 154.759 40.934 155.125C41.1088 155.49 41.3809 155.801 41.7204 156.022C42.2936 156.498 42.9305 156.893 43.6127 157.193L52.6235 159.536L57.129 160.753C57.723 160.914 58.2863 161.173 58.796 161.518C59.1745 161.765 59.4682 162.122 59.6373 162.541C59.8065 162.96 59.8431 163.421 59.7421 163.861C59.7638 164.041 59.7638 164.222 59.7421 164.402L58.2553 170.71C58.1507 171.313 57.8305 171.857 57.3542 172.241C57.1206 172.532 56.8142 172.757 56.4661 172.891C56.1179 173.026 55.7405 173.066 55.3718 173.007L52.2631 172.557C50.9115 172.286 49.5148 171.926 48.2533 171.611L47.8027 171.611L46.5863 171.295C46.4203 171.19 46.2374 171.113 46.0456 171.07L45.7753 171.07L45.0995 171.07C44.1392 170.929 43.1905 170.718 42.261 170.439L41.7654 170.439L32.7546 168.051L27.1678 166.565L21.2207 165.078L18.6075 163.861ZM18.6075 145.84C18.4562 146.09 18.3495 146.364 18.2921 146.651C18.077 147.491 17.9561 148.352 17.9317 149.219C17.8937 149.492 17.9376 149.771 18.0578 150.019C18.1781 150.268 18.3694 150.475 18.6075 150.615C18.9052 150.829 19.242 150.982 19.5987 151.066L21.0855 151.426L23.0679 152.012L24.1041 152.012L24.8701 152.237L26.3569 152.688C26.6257 152.753 26.9088 152.721 27.1562 152.597C27.4036 152.473 27.5993 152.266 27.7085 152.012C28.0023 151.56 28.2441 151.076 28.4294 150.57L28.7447 149.849C28.7608 149.73 28.7608 149.609 28.7447 149.489C28.7972 148.77 28.9333 148.059 29.1502 147.371L29.1502 146.831L29.1502 146.605C29.1792 146.411 29.1792 146.214 29.1502 146.02C29.1502 145.659 29.1502 145.299 29.1502 144.803L29.1502 144.218C29.0872 143.91 28.9967 143.608 28.8799 143.316C28.5336 142.808 28.07 142.391 27.5283 142.1C26.7644 141.521 25.8645 141.149 24.9151 141.019L22.6173 140.658L21.9866 140.658L21.7163 140.658C20.9685 140.751 20.2559 141.03 19.6438 141.469V141.469C19.0565 142.189 18.6129 143.015 18.3372 143.902L18.3372 144.263C18.3372 144.263 18.3372 144.668 18.3372 144.893L18.6075 145.84Z" fill="black"/>
<path d="M87.6758 100.92C88.1849 101.246 88.5517 101.752 88.7022 102.338C88.8527 102.923 88.7757 103.543 88.4867 104.074C88.4227 104.38 88.3003 104.671 88.1263 104.93L87.4054 106.011C86.9098 106.822 86.2791 107.814 85.8736 108.625C85.6743 108.991 85.4939 109.367 85.3329 109.751C85.0984 110.149 84.8104 110.513 84.4769 110.832L84.1615 111.238C83.8833 111.733 83.4513 112.124 82.931 112.351C82.4107 112.579 81.8305 112.631 81.2781 112.499C81.0855 112.545 80.8849 112.545 80.6924 112.499C80.0687 112.633 79.4237 112.633 78.8001 112.499C78.2518 112.371 77.6813 112.371 77.1331 112.499C76.758 112.476 76.3818 112.476 76.0067 112.499L72.898 112.499C70.9156 112.499 68.9332 112.499 66.9959 112.049C66.1562 111.98 65.3124 111.98 64.4728 112.049L63.5266 112.049L63.1662 112.049L62.3553 112.049L61.0937 112.274C60.7059 112.21 60.3102 112.21 59.9223 112.274C59.6664 112.47 59.452 112.715 59.2916 112.995C59.0915 113.322 58.9254 113.67 58.796 114.031C58.796 114.031 58.796 114.301 59.2465 114.572L59.5619 114.572C60.9586 115.608 62.5355 116.599 64.0673 117.59C64.5629 117.906 65.1937 118.131 65.7794 118.537L67.4914 119.618C69.0233 120.564 70.5101 121.69 71.9969 122.591C72.5389 122.94 72.9998 123.401 73.3485 123.943C73.7128 124.259 73.9664 124.683 74.0718 125.153C74.1772 125.624 74.129 126.115 73.9342 126.556C73.7462 126.813 73.6086 127.104 73.5287 127.412L72.0419 129.8C71.4608 130.76 70.8134 131.678 70.1046 132.548C69.749 133.149 69.2736 133.671 68.7079 134.08C68.4432 134.304 68.1314 134.464 67.796 134.55C67.4605 134.636 67.11 134.645 66.7706 134.576C66.3887 134.442 66.0253 134.261 65.6893 134.035L62.4454 131.963L58.2553 129.305L53.7499 126.511L52.6235 125.745C52.3727 125.599 52.1449 125.417 51.9477 125.205L51.3169 124.754C49.5598 123.853 47.9829 122.817 46.4961 121.871L45.4599 121.195L39.8281 117.635L36.4941 115.518L34.3765 114.166L31.9436 112.634L31.493 112.364C30.9425 111.955 30.3138 111.664 29.6458 111.508C29.1444 111.318 28.707 110.99 28.3843 110.562C27.9003 110.086 27.3548 109.677 26.7624 109.345L26.2217 108.985L22.9328 106.913L21.8965 106.237C21.3677 105.947 20.9069 105.548 20.5448 105.065C20.0367 104.379 19.8109 103.525 19.9141 102.677C20.1246 101.95 20.3959 101.242 20.7251 100.56L20.7251 100.199L21.0855 99.6588L21.536 98.9379C21.7922 98.4641 22.1274 98.0374 22.5272 97.6764C23.0469 96.6187 23.6338 95.5954 24.2844 94.6127L25.2756 93.0809C25.5459 92.5853 25.9514 91.9996 26.2217 91.549L26.8975 90.4677C27.1678 90.0172 27.3931 89.7468 27.6184 89.3864L28.8799 87.359L28.8799 86.9985C30.0977 85.2373 31.6241 83.7109 33.3853 82.4931C33.71 82.2505 34.057 82.0393 34.4216 81.8623C34.6622 81.794 34.8904 81.6875 35.0974 81.547C36.6265 80.4298 38.4358 79.7591 40.3237 79.6096C40.5167 79.651 40.7164 79.651 40.9094 79.6096C43.801 79.2429 46.7384 79.583 49.4697 80.6008C50.498 80.9143 51.5061 81.2904 52.4884 81.7272C54.7724 82.6726 56.8528 84.0493 58.6157 85.7821C60.7405 87.7163 62.298 90.1929 63.1212 92.9457V92.9457C63.09 93.185 63.09 93.4273 63.1212 93.6666C63.6365 94.6889 64.0879 95.7422 64.4728 96.8204C64.5037 97.0922 64.6287 97.3446 64.8262 97.5339C65.0237 97.7232 65.2812 97.8373 65.5541 97.8566C66.6847 98.0995 67.8278 98.28 68.9782 98.3973L71.3211 98.8478C71.9207 98.8978 72.5236 98.8978 73.1232 98.8478C73.1232 98.8478 78.71 99.1632 79.9715 99.4786C80.5668 99.3642 81.1784 99.3642 81.7737 99.4786C82.522 99.567 83.2781 99.567 84.0264 99.4786C85.3539 99.6078 86.6184 100.107 87.6758 100.92ZM45.6401 92.9007C45.2116 92.79 44.762 92.79 44.3335 92.9007C43.7929 92.9007 43.3423 92.9007 43.027 92.9007C42.7799 92.9295 42.5424 93.0132 42.3319 93.1458C42.1214 93.2783 41.9433 93.4562 41.8105 93.6666C40.7726 94.2948 39.9301 95.1997 39.3775 96.2797L38.8369 97.1358C38.8369 97.1358 38.8369 97.6314 38.4765 97.8116C38.116 97.9918 37.9809 98.7577 37.6655 99.2533C37.3501 99.7489 37.3051 100.29 37.9809 100.74L38.8369 101.281C39.446 101.795 40.0937 102.262 40.7743 102.677L42.3511 103.669C43.5967 104.496 44.8906 105.248 46.2258 105.921L46.4961 105.921C46.578 105.904 46.654 105.865 46.717 105.81C46.78 105.755 46.828 105.685 46.8566 105.606L47.3972 104.75L48.2983 103.353L48.5686 102.903C48.9767 102.285 49.3381 101.637 49.6499 100.965C50.0554 100.29 50.3708 99.5236 50.8213 98.8478C50.9035 98.5378 50.9035 98.2117 50.8213 97.9017C50.5711 96.9279 50.0381 96.0499 49.2895 95.3786C48.282 94.2805 47.0325 93.4321 45.6401 92.9007Z" fill="black"/>
<path d="M58.3003 64.2463C57.3827 63.6301 56.6008 62.8328 56.0025 61.9034C56.0025 61.9034 55.6421 61.4078 55.4619 61.2276C55.2214 60.9822 55.0098 60.7101 54.8311 60.4166L54.8311 60.1013C54.5268 59.623 54.3924 59.0562 54.4496 58.4922C54.5068 57.9282 54.7523 57.3999 55.1465 56.9925C55.2089 56.7435 55.3514 56.5219 55.552 56.3618L56.6333 55.3255L58.8409 53.1629L59.697 52.3519C60.1879 51.7739 60.8812 51.4053 61.635 51.3216C62.3887 51.2378 63.146 51.4452 63.7519 51.9014L65.2837 53.0277L65.7793 53.4783C67.2094 54.5042 68.5237 55.6825 69.699 56.9925L70.465 57.7584L72.3122 59.6507C74.0243 61.4078 75.7814 63.21 77.4934 65.1023C79.8362 67.8957 82.4044 70.4638 84.8373 72.9418L88.2614 76.456C90.1988 78.5735 92.3163 80.601 94.3888 82.7185L97.6327 86.0976C98.1734 86.6383 98.669 87.1789 99.2096 87.6745L99.9305 88.4855C100.286 88.8477 100.565 89.2777 100.75 89.7498C100.936 90.2219 101.025 90.7266 101.012 91.2338C100.934 91.9932 100.637 92.7136 100.156 93.3063L99.7052 93.7118L95.6503 97.7667L95.3349 98.0821C94.7994 98.589 94.09 98.8716 93.3525 98.8716C92.6151 98.8716 91.9057 98.589 91.3701 98.0821L90.1987 96.8656L80.8725 87.269L76.3671 82.7636L73.799 80.1054L71.321 77.4922L63.842 69.7879L60.1926 66.0484L58.3453 64.2913L58.3003 64.2463Z" fill="black"/>
<path d="M93.9834 66.1836C93.115 64.5939 92.1047 63.086 90.9648 61.6782C90.5481 61.1611 90.1858 60.6024 89.8834 60.0112C89.2527 58.8848 88.6219 57.8936 87.9011 56.8123C86.7296 55.0102 85.5582 53.1629 84.4769 51.4058L80.8275 45.774C80.668 45.4761 80.4873 45.1901 80.2869 44.918C79.5619 43.839 78.9145 42.7098 78.3495 41.5389C78.3495 41.5389 78.3495 41.2235 78.0342 41.0433L77.7638 40.6378C77.7638 40.3675 77.4935 40.0972 77.3133 39.7818C77.128 39.4434 77.0308 39.0638 77.0308 38.678C77.0308 38.2921 77.128 37.9125 77.3133 37.5741C77.9907 36.8393 78.7129 36.1471 79.4759 35.5016L79.7913 35.5016C80.3917 35.2802 80.9659 34.9931 81.5034 34.6456L82.9451 33.6995L83.4857 33.339C84.0169 32.9768 84.645 32.783 85.2879 32.783C85.9309 32.783 86.5589 32.9768 87.0901 33.339C87.6472 33.7718 88.1336 34.2886 88.5318 34.8709L91.2801 39.3763L92.812 41.7191L94.479 44.5125L97.6778 49.063C97.9741 49.4744 98.2023 49.9308 98.3537 50.4146C98.624 50.8201 98.8042 51.3157 99.0295 51.7212C99.2376 52.0979 99.5124 52.4337 99.8404 52.7124C99.9721 52.9354 100.158 53.1214 100.381 53.253L100.922 54.064C102.019 56.2278 103.253 58.3195 104.616 60.3266L106.193 62.5793C106.853 63.7017 107.639 64.7447 108.536 65.688C108.986 66.3638 109.347 66.9045 109.797 67.4902C109.909 67.6996 110.062 67.8838 110.248 68.0308L110.563 68.0308C110.563 68.3462 110.879 68.4363 111.645 68.0308L112.05 67.7605C113.942 66.5441 115.925 65.3726 117.817 64.2913C118.268 63.9759 118.673 63.8408 119.169 63.5254L120.881 62.309L121.151 62.0386C121.575 61.7533 122.053 61.558 122.556 61.4646C123.058 61.3713 123.574 61.382 124.073 61.496C124.571 61.61 125.04 61.8249 125.452 62.1274C125.864 62.43 126.21 62.8138 126.468 63.2551C126.765 63.6328 127.021 64.0405 127.233 64.4715L127.639 65.0573L128.18 65.9133L129.351 67.6704C129.588 68.077 129.799 68.4984 129.982 68.9319C130.198 69.3985 130.258 69.9225 130.152 70.4258C130.047 70.9291 129.781 71.3848 129.396 71.7253C129.036 72.1604 128.628 72.5534 128.18 72.8967L123.944 75.645L121.737 77.0417C121.593 77.1562 121.422 77.2335 121.241 77.267C120.281 77.7388 119.348 78.2653 118.448 78.8439L116.916 79.9252L116.285 80.2856C114.258 81.5471 111.78 83.079 109.347 84.3855L108.446 84.8811C108.09 84.9861 107.714 84.9998 107.352 84.921C106.99 84.8423 106.653 84.6736 106.373 84.4306V84.4306C106.161 84.2067 105.935 83.996 105.697 83.7998C105.11 83.1978 104.554 82.5662 104.03 81.9076L103.58 81.1417L102.814 80.1054C102.529 79.8441 102.285 79.5402 102.093 79.2043C100.922 76.9516 99.5251 74.6989 98.2185 72.8516L97.5877 71.9055L96.5064 70.2836C95.8554 69.5059 95.2678 68.6772 94.7493 67.8056L94.2087 66.9495C94.0672 66.7186 93.9895 66.4544 93.9834 66.1836V66.1836Z" fill="black"/>
<path d="M201.843 53.0277C201.894 53.3654 201.877 53.7098 201.793 54.0409C201.709 54.3719 201.56 54.6828 201.354 54.9555C201.149 55.2282 200.891 55.4572 200.596 55.629C200.301 55.8008 199.974 55.9121 199.636 55.9562L197.113 56.2265L195.13 56.4969L194.454 56.4969L193.013 56.4969C192.699 56.5395 192.38 56.5395 192.067 56.4969C191.433 56.4856 190.812 56.3093 190.267 55.9853C189.722 55.6614 189.271 55.2011 188.958 54.6496C188.282 53.6134 187.651 52.6672 187.066 51.676C186.819 51.1641 186.516 50.6806 186.164 50.2343C185.849 49.6937 185.489 49.0629 185.218 48.5222C184.935 48.1278 184.693 47.705 184.497 47.2607C184.002 46.5398 183.596 45.6838 182.966 44.9179C182.477 44.1718 181.831 43.5413 181.073 43.0707C180.434 42.7991 179.737 42.6908 179.046 42.7553L178.145 42.7553L172.288 43.2509C171.363 43.3361 170.47 43.6287 169.675 44.1069C168.943 44.4819 168.368 45.1046 168.053 45.864C167.664 46.4488 167.36 47.0859 167.152 47.7563C166.881 48.4321 166.656 49.3332 166.386 50.1442C166.115 50.9552 165.755 52.442 165.394 53.6134C165.394 54.0189 165.124 54.6496 164.944 55.1001L164.944 56.0913C164.668 56.9749 164.258 57.8107 163.727 58.5693C163.264 59.0967 162.622 59.4337 161.925 59.5155L161.294 59.5155L155.708 60.0111C155.245 60.0782 154.774 60.0782 154.311 60.0111C153.849 59.9837 153.404 59.825 153.029 59.5536C152.654 59.2823 152.364 58.9096 152.193 58.4792C151.897 57.4642 151.897 56.3855 152.193 55.3705C152.394 54.258 152.664 53.1595 153.004 52.0815L153.004 51.2255C153.455 49.1981 154.041 47.2157 154.626 45.1882L154.626 43.9267C155.212 41.8993 155.663 39.9169 156.338 37.9345L156.879 36.3576C157.6 32.9785 158.591 29.7346 159.492 26.6258L160.303 23.8325C161.385 20.1831 162.556 16.3084 163.322 12.2986C163.52 11.2208 163.822 10.1647 164.223 9.14477C164.372 8.48596 164.568 7.83855 164.809 7.20744C164.809 6.71184 165.079 6.39647 165.259 5.81076C165.514 5.03569 165.862 4.29441 166.295 3.60311C166.738 2.83876 167.356 2.19023 168.098 1.71081C168.544 1.32583 169.091 1.07583 169.675 0.989956C170.284 0.862265 170.901 0.771964 171.522 0.719607L172.964 0.719607C173.675 0.685114 174.383 0.832508 175.022 1.14783C175.66 1.46316 176.208 1.93602 176.613 2.52179C177.573 3.67123 178.348 4.96326 178.911 6.3514C179.919 8.66118 181.047 10.9169 182.29 13.1095C183.101 14.8216 183.957 16.5337 184.993 18.8315C185.399 19.9578 186.029 21.1292 186.48 22.2556L187.156 23.472C188.095 25.4158 189.133 27.3106 190.264 29.1489C190.286 29.3737 190.286 29.5999 190.264 29.8247C190.985 31.0412 191.571 32.4379 192.247 33.6543C192.923 34.8708 193.058 35.2312 193.373 36.0873C193.938 37.2726 194.585 38.4168 195.31 39.5114C196.014 40.6674 196.603 41.8898 197.068 43.1608C197.442 43.7519 197.773 44.3692 198.059 45.008C198.825 46.5398 199.636 48.0266 200.266 49.5134L201.077 50.8651L201.077 51.2255C201.186 51.4271 201.277 51.6383 201.348 51.8563C201.661 52.1659 201.839 52.587 201.843 53.0277V53.0277ZM176.568 31.5368L176.568 31.0412C176.429 30.7696 176.323 30.4821 176.252 30.1851C175.802 29.284 175.351 27.617 174.901 26.8061C174.45 25.9951 174.45 25.5446 174.18 24.9588C173.91 24.3731 173.729 24.1479 173.414 23.6973C173.329 23.6351 173.227 23.6015 173.121 23.6015C173.016 23.6015 172.913 23.6351 172.828 23.6973C172.793 23.8149 172.793 23.9402 172.828 24.0577C172.288 26.4006 171.927 29.3742 171.387 31.6719L171.387 32.1225C171.387 32.1225 171.387 32.1225 171.387 32.3928C171.756 32.4882 172.144 32.4882 172.513 32.3928L172.918 32.3928C173.581 32.1413 174.282 32.0042 174.991 31.9873C175.433 31.8687 175.886 31.7932 176.343 31.7621L176.613 31.7621L176.568 31.5368Z" fill="black"/>
<path d="M211.89 17.9305C211.89 16.714 212.341 15.7679 212.566 14.6415L212.566 13.7855C212.677 13.4917 212.767 13.1906 212.837 12.8844C212.922 12.548 213.027 12.217 213.152 11.8932L213.873 8.60421C214.233 7.25258 214.549 5.99109 214.774 4.86473C214.897 4.40559 215.047 3.95422 215.225 3.51309C215.433 2.98932 215.784 2.53445 216.238 2.20001C216.692 1.86557 217.231 1.66494 217.793 1.62082C218.299 1.53338 218.818 1.53338 219.324 1.62082L229.777 4.00869L230.723 4.00869L233.742 4.59438C234.958 4.86471 235.995 5.18011 237.031 5.49549C238.231 5.84366 239.393 6.31156 240.5 6.89216C242.114 7.72314 243.493 8.94721 244.51 10.4515C245.2 11.1438 245.711 11.9945 245.997 12.9295L246.267 13.38L246.267 13.7855L246.267 14.0108L246.717 14.8668C247.347 16.7152 247.726 18.6396 247.844 20.5887V20.5887C248.046 21.524 248.046 22.4918 247.844 23.4271C247.82 23.7871 247.82 24.1484 247.844 24.5084L247.844 25.2293C247.895 25.5123 247.895 25.8023 247.844 26.0853C247.766 26.4384 247.66 26.7848 247.528 27.1215C247.256 28.7275 246.658 30.2607 245.771 31.627C245.771 31.627 245.771 31.9424 245.501 32.1226C245.186 32.7083 244.87 33.4742 244.42 34.1951C242.733 36.6671 240.456 38.68 237.797 40.0521C236.601 40.8164 235.206 41.2085 233.787 41.1785C232.817 41.3382 231.828 41.3382 230.858 41.1785L230.498 41.1785C229.867 41.1785 229.191 41.1785 228.47 41.1785C228.155 41.199 227.839 41.199 227.524 41.1785L225.587 41.1785L225.317 41.1785C224.28 41.1785 223.334 40.818 222.298 40.6378C221.905 40.6134 221.512 40.6971 221.162 40.8797C220.813 41.0624 220.52 41.3371 220.316 41.6741C220.004 42.2912 219.763 42.9409 219.595 43.6114L217.612 52.6223L216.576 57.1277C216.434 57.7427 216.174 58.3242 215.81 58.8398C215.579 59.2263 215.234 59.5328 214.824 59.7181C214.413 59.9033 213.955 59.9584 213.512 59.876L213.017 59.876L206.889 58.4793C206.282 58.3818 205.725 58.0799 205.313 57.6233C205.017 57.4019 204.786 57.1056 204.643 56.765C204.501 56.4244 204.452 56.0519 204.502 55.686L204.817 52.5772C204.817 51.2256 205.358 49.8289 205.628 48.5223L205.628 48.0267L205.628 46.8553C205.657 46.6763 205.657 46.4938 205.628 46.3147L205.628 46.0444L205.628 45.3235C205.708 44.3676 205.859 43.4189 206.078 42.4851L206.078 41.9895L208.106 32.9786L210.314 26.5358C210.764 24.4633 211.125 22.5711 211.575 20.5436C211.62 19.6425 211.71 18.7865 211.89 17.9305ZM229.912 17.0294C229.649 16.9192 229.378 16.8288 229.101 16.7591C228.238 16.6029 227.365 16.5125 226.488 16.4887C226.218 16.4697 225.948 16.5273 225.709 16.6548C225.47 16.7823 225.271 16.9746 225.136 17.2096C224.949 17.5376 224.798 17.8851 224.686 18.2459L224.325 20.003C224.114 20.6667 223.949 21.3441 223.83 22.0304L223.83 23.0216L223.83 23.8326C223.83 24.3282 223.56 24.8688 223.469 25.2743C223.428 25.5528 223.481 25.8371 223.62 26.082C223.758 26.327 223.975 26.5184 224.235 26.6259C224.694 26.914 225.196 27.1269 225.722 27.2567L226.443 27.5721C226.443 27.5721 226.713 27.5721 226.758 27.5721C227.488 27.6335 228.211 27.754 228.921 27.9325L229.507 27.9325L230.137 27.9325C230.542 27.9621 230.949 27.9621 231.354 27.9325L231.985 27.9325C232.291 27.8954 232.584 27.7874 232.841 27.6171C233.349 27.2708 233.766 26.8072 234.057 26.2655C234.577 25.4659 234.901 24.5553 235.003 23.6073L235.274 21.3095L235.274 20.6337L235.274 20.4085C235.168 19.6565 234.873 18.9436 234.418 18.336V18.336C233.671 17.7854 232.832 17.3734 231.94 17.1195L231.579 17.1195L230.948 17.1195L229.912 17.0294Z" fill="black"/>
<path d="M277.354 84.6109C276.848 85.1313 276.179 85.4638 275.459 85.5539C274.738 85.644 274.009 85.4862 273.39 85.1065L272.263 84.4307C271.452 83.9802 270.461 83.3945 269.605 82.989C268.749 82.5835 268.704 82.6285 268.479 82.4934C268.061 82.2868 267.681 82.0128 267.352 81.6824L266.947 81.4121C266.434 81.1709 266.018 80.7642 265.764 80.2575C265.511 79.7508 265.436 79.1735 265.55 78.6187C265.504 78.411 265.504 78.1956 265.55 77.9879C265.438 77.3622 265.438 76.7214 265.55 76.0957C265.684 75.5633 265.684 75.0061 265.55 74.4737C265.572 74.0986 265.572 73.7225 265.55 73.3474L265.55 70.1936C265.55 68.2562 265.55 66.2288 265.55 64.2914C265.618 63.4518 265.618 62.6081 265.55 61.7684C265.55 61.408 265.55 61.1827 265.55 60.8223C265.55 60.4618 265.55 60.4618 265.55 60.4618L265.55 59.6508C265.55 59.2904 265.55 58.7948 265.28 58.3893C265.271 57.9989 265.179 57.615 265.009 57.263C264.825 57.0081 264.576 56.8062 264.289 56.6773C263.959 56.4511 263.594 56.2834 263.207 56.1817C263.207 56.1817 262.937 56.1817 262.712 56.6322L262.712 56.9476L262.712 57.2179C261.657 58.6674 260.68 60.1712 259.783 61.7233C259.513 62.2189 259.333 62.8497 258.927 63.4805L257.936 65.2376C257.035 66.7694 255.954 68.3463 255.143 70.0133C254.843 70.5894 254.391 71.0724 253.836 71.41C253.541 71.788 253.132 72.0617 252.67 72.1914C252.208 72.3211 251.717 72.2999 251.268 72.1309C250.996 71.9492 250.689 71.8264 250.367 71.7705L247.934 70.3287C246.946 69.7958 245.998 69.1936 245.095 68.5265C244.472 68.205 243.932 67.7421 243.519 67.1749C243.023 66.8145 242.978 66.0035 242.978 65.2826C243.091 64.8863 243.258 64.5073 243.474 64.1563L245.411 60.8673L247.889 56.3619L250.502 51.8565L251.268 50.685C251.396 50.4209 251.563 50.1778 251.764 49.9642V49.9642L252.169 49.2884C253.025 47.5313 253.971 45.9093 254.872 44.3774L255.503 43.2961L258.837 37.5742L260.819 34.1501L262.126 31.9424L263.568 29.4645L263.793 29.0139C264.202 28.4738 264.466 27.8378 264.559 27.1667C264.752 26.6545 265.079 26.2033 265.505 25.8601C265.932 25.3407 266.309 24.7826 266.631 24.1931L266.992 23.6074L268.929 20.2734L269.56 19.1921C269.847 18.6619 270.229 18.1885 270.686 17.7954C271.354 17.278 272.187 17.0217 273.029 17.0745C273.775 17.2331 274.5 17.4749 275.192 17.7954L275.552 17.7954L276.138 18.1108L276.859 18.5613C277.327 18.829 277.765 19.1462 278.165 19.5075C279.237 19.9773 280.276 20.5192 281.274 21.1294L282.851 22.0305L284.428 22.9766L285.509 23.6074L286.636 24.2832L288.708 25.4546L289.068 25.4546C290.81 26.5504 292.337 27.9551 293.574 29.5996L294.25 30.5908C294.305 30.8453 294.429 31.0794 294.61 31.2667C295.769 32.7507 296.487 34.5304 296.683 36.4028L296.683 36.9885C297.138 39.6316 296.984 42.3437 296.232 44.9181C295.968 45.9652 295.622 46.9897 295.196 47.9818C294.341 50.3132 293.041 52.4558 291.366 54.2894C289.542 56.5256 287.143 58.2232 284.428 59.2003C284.189 59.1692 283.946 59.1692 283.707 59.2003C282.708 59.7826 281.669 60.2944 280.598 60.7321C280.331 60.7643 280.084 60.891 279.903 61.0893C279.721 61.2877 279.616 61.5446 279.607 61.8135C279.413 62.9471 279.278 64.09 279.202 65.2376L278.841 67.6255C278.793 68.2252 278.793 68.8279 278.841 69.4276C278.841 69.4276 278.841 75.0594 278.526 76.321C278.617 76.9182 278.617 77.5258 278.526 78.1231C278.413 78.8698 278.413 79.6291 278.526 80.3758C278.583 81.8747 278.173 83.3543 277.354 84.6109V84.6109ZM283.752 42.2599C283.887 41.8348 283.887 41.3784 283.752 40.9533C283.752 40.4577 283.752 40.0072 283.752 39.6918C283.715 39.4473 283.627 39.2132 283.496 39.0039C283.364 38.7946 283.19 38.6147 282.986 38.4753C282.287 37.4711 281.34 36.6642 280.238 36.1325L279.382 35.6369C279.166 35.5133 278.94 35.4078 278.706 35.3215L277.264 34.5556C276.498 34.1051 276.183 34.2402 275.777 34.9611L275.237 35.8171C274.744 36.4383 274.307 37.1017 273.93 37.7995L272.984 39.4215C272.263 40.6379 271.452 42.0797 270.867 43.3412L270.867 43.6566C270.867 43.8819 270.867 43.9269 271.272 44.0621L271.858 44.5577L273.39 45.5939L273.795 45.8642C274.434 46.2656 275.113 46.5979 275.823 46.8554C276.498 47.2609 277.264 47.5312 277.94 47.9367C278.251 48.0149 278.576 48.0149 278.886 47.9367C279.864 47.6491 280.729 47.067 281.364 46.2697C282.489 45.1583 283.311 43.7781 283.752 42.2599V42.2599Z" fill="black"/>
<path d="M312.767 53.8387C313.365 52.8969 314.147 52.0849 315.065 51.4508C315.065 51.4508 315.515 51.0904 315.696 50.8651C315.927 50.6094 316.202 50.3959 316.507 50.2343L316.822 50.009C317.269 49.6692 317.815 49.4852 318.376 49.4852C318.938 49.4852 319.484 49.6692 319.931 50.009C320.171 50.0899 320.388 50.2292 320.561 50.4146L321.643 51.4508L323.895 53.6134L324.706 54.3793C325.303 54.8513 325.7 55.5313 325.817 56.2831C325.934 57.035 325.762 57.8033 325.337 58.4342C325.009 58.9811 324.648 59.5076 324.256 60.0111L323.85 60.5518C322.862 62.0127 321.73 63.3711 320.471 64.6066L319.75 65.3726L317.903 67.3099C316.191 69.067 314.479 70.9142 312.677 72.6714C309.929 75.1493 307.496 77.8076 305.108 80.2855L301.729 83.8448C299.701 85.8723 297.719 88.0799 295.692 90.1975L292.448 93.6216L290.916 95.2436L290.15 96.0095C289.425 96.7214 288.462 97.1389 287.447 97.1809C286.675 97.1305 285.937 96.8478 285.329 96.3699L284.924 95.9644L280.688 92.0447L280.373 91.7744C279.863 91.2314 279.579 90.5144 279.579 89.7695C279.579 89.0245 279.863 88.3075 280.373 87.7645L281.499 86.5932L290.51 76.8614L295.016 72.356L297.584 69.6978L300.107 67.1297L307.496 59.3353L311.145 55.5507L312.812 53.6584L312.767 53.8387Z" fill="black"/>
<path d="M312.181 89.6118C313.78 88.706 315.289 87.65 316.687 86.458C317.215 85.9369 317.805 85.4829 318.444 85.1064C319.525 84.4306 320.471 83.7548 321.553 83.0339L326.869 79.3845L332.321 75.5549L333.177 74.9692C334.211 74.1849 335.312 73.4915 336.466 72.8967C336.466 72.8967 336.781 72.8967 336.961 72.5813L337.367 72.2659L338.268 71.5901C338.602 71.3918 338.983 71.2872 339.372 71.2872C339.76 71.2872 340.141 71.3918 340.475 71.5901C341.262 72.2086 341.987 72.9028 342.638 73.6626L342.638 73.978C342.892 74.5432 343.193 75.0858 343.539 75.5999L344.53 77.0417L344.936 77.5823C345.298 78.1135 345.492 78.7416 345.492 79.3845C345.492 80.0275 345.298 80.6555 344.936 81.1867C344.493 81.7479 343.978 82.2479 343.404 82.6735L339.124 85.602L336.826 87.224L334.123 89.0261L329.212 92.4953C328.819 92.8065 328.378 93.0502 327.905 93.2162C327.499 93.4806 327.078 93.7213 326.644 93.937C326.273 94.1726 325.939 94.461 325.653 94.7931C325.444 94.9276 325.273 95.1138 325.157 95.3337V95.3337L324.391 95.8744C322.316 97.2012 320.33 98.661 318.444 100.245L316.507 101.596C315.418 102.317 314.407 103.148 313.488 104.074C312.89 104.473 312.319 104.91 311.776 105.381C311.576 105.506 311.394 105.657 311.235 105.831L311.01 106.192C310.695 106.192 310.649 106.507 311.01 107.273L311.19 107.634C312.497 109.436 313.758 111.373 314.885 113.22L315.741 114.572C316.101 115.113 316.552 115.563 317.002 116.239C317.453 116.915 317.002 116.239 317.272 116.509C317.569 116.923 317.779 117.392 317.889 117.889C318 118.386 318.01 118.9 317.917 119.401C317.824 119.901 317.632 120.378 317.351 120.802C317.07 121.227 316.706 121.59 316.281 121.871C315.831 122.231 315.56 122.366 315.11 122.682L314.524 123.087L313.668 123.673L311.956 124.889C311.587 125.177 311.196 125.433 310.785 125.655C310.324 125.869 309.81 125.935 309.31 125.847C308.81 125.758 308.35 125.518 307.991 125.16C307.546 124.811 307.151 124.402 306.82 123.943L303.891 119.843L302.405 117.726C302.278 117.566 302.186 117.382 302.134 117.185C301.648 116.243 301.091 115.339 300.467 114.482L299.341 112.995L298.935 112.409C297.629 110.382 296.007 107.904 294.43 105.561C294.209 105.303 294.027 105.015 293.889 104.705C293.79 104.347 293.771 103.972 293.833 103.606C293.895 103.24 294.038 102.892 294.25 102.587V102.587C294.472 102.387 294.669 102.16 294.835 101.912C295.376 101.416 296.052 100.74 296.728 100.2L297.404 99.704C297.77 99.462 298.117 99.1908 298.44 98.893C298.688 98.5945 298.995 98.3493 299.341 98.1721C301.549 96.8656 303.486 95.4238 305.513 94.0272L306.459 93.3513L308.036 92.225C308.793 91.5599 309.59 90.9429 310.424 90.3777L311.235 89.792C311.539 89.6825 311.858 89.6216 312.181 89.6118V89.6118Z" fill="black"/>
<path d="M329.437 196.886C329.103 196.944 328.76 196.935 328.429 196.86C328.098 196.785 327.785 196.645 327.509 196.448C327.232 196.251 326.997 196.001 326.818 195.713C326.639 195.424 326.518 195.104 326.464 194.768L326.103 192.291L325.743 190.308L325.743 189.677L325.743 188.236C325.7 187.922 325.7 187.603 325.743 187.289V187.289C325.738 186.651 325.897 186.021 326.204 185.461C326.512 184.901 326.958 184.429 327.5 184.091C328.491 183.37 329.392 182.739 330.428 182.108C330.911 181.819 331.377 181.503 331.825 181.162C332.321 180.802 332.951 180.441 333.492 180.126L334.663 179.36C335.384 178.819 336.24 178.414 337.006 177.738C337.717 177.218 338.315 176.559 338.763 175.801C338.924 175.119 338.924 174.41 338.763 173.728L338.763 172.872L338.088 167.015C337.964 166.1 337.641 165.223 337.141 164.447C336.706 163.752 336.058 163.215 335.294 162.915C334.695 162.535 334.042 162.246 333.357 162.059L330.969 161.383L327.5 160.527C326.979 160.434 326.467 160.299 325.968 160.122L324.932 160.122C324.047 159.893 323.208 159.512 322.454 158.995C321.909 158.572 321.54 157.962 321.417 157.283L321.417 156.607L320.697 151.066C320.652 150.601 320.652 150.134 320.697 149.669C320.697 149.207 320.833 148.754 321.09 148.37C321.347 147.985 321.711 147.684 322.138 147.507C323.117 147.081 324.203 146.971 325.247 147.191C326.362 147.334 327.463 147.576 328.536 147.912L329.437 147.912C331.465 148.272 333.492 148.768 335.519 149.309L336.781 149.309C338.808 149.849 340.836 150.21 342.818 150.796L344.395 151.291C347.864 151.922 351.108 152.733 354.262 153.544L357.055 154.22C360.882 155.28 364.762 156.137 368.679 156.788C369.764 156.978 370.834 157.249 371.878 157.599C372.542 157.706 373.192 157.887 373.816 158.139L375.257 158.5C376.048 158.73 376.806 159.063 377.51 159.491C378.282 159.901 378.946 160.488 379.447 161.203C379.854 161.629 380.134 162.159 380.258 162.735C380.258 163.456 380.258 163.951 380.574 164.582C380.616 165.062 380.616 165.544 380.574 166.024C380.635 166.737 380.514 167.454 380.222 168.108C379.931 168.762 379.478 169.332 378.907 169.763C377.787 170.755 376.527 171.574 375.167 172.196C372.869 173.233 370.662 174.584 368.544 175.801L362.912 178.729C361.831 179.18 360.705 179.856 359.578 180.351L358.362 181.027C356.695 181.928 354.938 182.964 352.82 184.361L352.19 184.361C350.973 185.127 349.621 185.758 348.405 186.478C347.188 187.199 346.873 187.38 346.017 187.695C344.858 188.306 343.744 188.998 342.683 189.767C341.55 190.52 340.342 191.154 339.079 191.66C338.493 192.11 337.862 192.336 337.277 192.741L332.771 195.084L331.419 195.94L331.104 195.94C330.903 196.063 330.692 196.168 330.473 196.255C330.219 196.588 329.849 196.813 329.437 196.886ZM349.982 170.709L350.342 170.709C350.6 170.563 350.872 170.442 351.153 170.349C352.054 169.899 353.721 169.358 354.532 168.862C355.148 168.642 355.749 168.387 356.335 168.096L357.596 167.285C357.647 167.196 357.674 167.095 357.674 166.993C357.674 166.89 357.647 166.789 357.596 166.7C357.464 166.661 357.323 166.661 357.191 166.7C354.893 166.249 351.874 166.024 349.531 165.573L349.126 165.573C349.087 165.544 349.039 165.528 348.991 165.528C348.942 165.528 348.894 165.544 348.855 165.573C348.785 165.93 348.785 166.298 348.855 166.655L348.855 167.105C349.142 167.746 349.31 168.432 349.351 169.133C349.475 169.649 349.536 170.178 349.531 170.709L349.531 170.98L349.982 170.709Z" fill="black"/>
<path d="M364.895 205.537C366.032 205.644 367.16 205.824 368.274 206.077L369.085 206.077L370.031 206.077L370.977 206.753L374.311 207.384C375.663 207.699 376.924 207.925 378.096 208.105C378.591 208.105 378.997 208.375 379.492 208.51C380.025 208.684 380.498 209.004 380.857 209.434C381.216 209.865 381.445 210.388 381.52 210.943C381.634 211.447 381.634 211.971 381.52 212.475L379.673 222.838L379.673 223.784C379.673 224.775 379.357 225.766 379.177 226.847C378.997 227.929 378.681 229.1 378.411 230.136C378.077 231.399 377.609 232.623 377.014 233.786C376.261 235.447 375.079 236.878 373.59 237.931C372.949 238.67 372.126 239.229 371.202 239.553L370.752 239.823L370.391 239.823L370.121 239.823L369.31 240.364C367.444 241.103 365.491 241.603 363.498 241.85V241.85C362.561 242.032 361.597 242.032 360.66 241.85L358.677 241.85C358.394 241.902 358.104 241.902 357.821 241.85C357.465 241.809 357.116 241.718 356.785 241.58C355.191 241.343 353.659 240.792 352.28 239.958C352.11 239.859 351.929 239.783 351.739 239.733V239.733C351.016 239.457 350.309 239.141 349.621 238.787C347.245 237.125 345.286 234.935 343.9 232.389C343.108 231.216 342.67 229.839 342.638 228.424C342.478 227.455 342.478 226.465 342.638 225.496L342.638 225.135C342.638 224.505 342.638 223.829 342.638 223.108C342.638 222.387 342.638 222.522 342.638 222.162L342.638 220.224L342.638 219.909C342.638 218.918 342.908 217.927 342.998 216.935C343.018 216.537 342.928 216.142 342.737 215.792C342.546 215.442 342.263 215.152 341.917 214.953C341.297 214.67 340.647 214.459 339.98 214.322L330.969 212.655L326.464 211.799C325.852 211.694 325.27 211.464 324.751 211.123C324.352 210.913 324.029 210.582 323.826 210.178C323.624 209.774 323.554 209.317 323.625 208.871C323.603 208.706 323.603 208.54 323.625 208.375L324.751 202.203C324.852 201.593 325.135 201.027 325.562 200.581C325.783 200.279 326.076 200.038 326.415 199.88C326.754 199.723 327.127 199.654 327.5 199.68L330.609 199.68C331.96 199.68 333.402 200.085 334.663 200.355L335.159 200.355L336.375 200.355C336.552 200.408 336.74 200.408 336.916 200.355L337.231 200.355L337.907 200.355C338.952 200.589 339.976 200.905 340.971 201.302L341.467 201.302L350.477 202.969L356.154 204.005C358.182 204.365 360.119 204.636 362.192 205.041C363.183 205.266 364.039 205.356 364.895 205.537ZM366.517 223.558C366.634 223.286 366.709 222.997 366.742 222.702C366.847 221.834 366.847 220.957 366.742 220.089C366.759 219.82 366.696 219.551 366.559 219.319C366.423 219.086 366.22 218.899 365.976 218.783C365.666 218.571 365.312 218.432 364.94 218.377L363.183 218.062C362.504 217.861 361.811 217.71 361.11 217.611V217.611L360.119 217.611L359.308 217.611L357.821 217.341C357.549 217.302 357.272 217.357 357.034 217.496C356.797 217.635 356.614 217.85 356.515 218.107C356.278 218.6 356.082 219.113 355.929 219.639L355.839 220.269C355.839 220.269 355.839 220.54 355.839 220.585C355.893 221.305 355.893 222.028 355.839 222.747L355.839 223.333C355.816 223.528 355.816 223.724 355.839 223.919C355.789 224.323 355.789 224.731 355.839 225.135L355.839 225.766C355.912 226.069 356.034 226.358 356.199 226.622C356.565 227.107 357.045 227.493 357.596 227.748C358.412 228.254 359.341 228.549 360.299 228.604L362.597 228.83L362.687 228.83C363.432 228.69 364.129 228.364 364.715 227.884V227.884C365.218 227.105 365.597 226.254 365.841 225.361L365.841 224.775L365.841 224.144L366.517 223.558Z" fill="black"/>
<path d="M300.737 273.524C300.209 273.228 299.809 272.745 299.617 272.17C299.426 271.595 299.456 270.969 299.701 270.415C299.731 270.107 299.84 269.812 300.017 269.559L300.602 268.387C301.053 267.576 301.594 266.54 301.999 265.684C302.404 264.828 302.314 264.783 302.45 264.558C302.624 264.12 302.884 263.722 303.215 263.386L303.441 262.936C303.673 262.424 304.069 262.004 304.567 261.742C305.065 261.481 305.636 261.394 306.189 261.494C306.394 261.425 306.615 261.425 306.82 261.494C307.443 261.36 308.088 261.36 308.712 261.494C309.249 261.585 309.797 261.585 310.334 261.494L314.839 261.494C316.822 261.494 318.804 261.494 320.742 261.494C321.58 261.584 322.426 261.584 323.265 261.494L324.211 261.494L324.571 261.494L325.382 261.494C325.743 261.494 326.238 261.269 326.644 261.179C327.037 261.153 327.421 261.046 327.77 260.863C328.013 260.659 328.199 260.395 328.311 260.097C328.518 259.764 328.67 259.398 328.761 259.016C328.761 259.016 328.761 259.016 328.266 258.521L327.95 258.521L327.725 258.521C326.238 257.619 324.571 256.718 322.949 255.817C322.409 255.547 321.778 255.367 321.147 255.051L319.39 254.105C317.768 253.249 316.191 252.258 314.479 251.492C313.914 251.18 313.422 250.75 313.037 250.231C312.646 249.946 312.359 249.54 312.22 249.076C312.082 248.612 312.1 248.115 312.271 247.662C312.411 247.391 312.517 247.103 312.587 246.806L313.893 244.283C314.414 243.293 314.986 242.331 315.605 241.4C315.923 240.786 316.351 240.237 316.867 239.778C316.984 239.418 317.189 239.092 317.465 238.832C317.74 238.573 318.077 238.386 318.444 238.291C318.848 238.404 319.24 238.555 319.615 238.742L322.994 240.544L327.455 242.797L331.96 245.23L333.132 245.95L333.852 246.401L334.573 246.761C336.33 247.527 337.997 248.428 339.574 249.284L340.971 250.14L346.828 253.249L350.342 255.141L352.505 256.313L355.073 257.665L355.478 257.89C356.064 258.269 356.725 258.515 357.416 258.611C357.93 258.78 358.394 259.074 358.767 259.467C359.278 259.914 359.856 260.279 360.479 260.548L361.02 260.818L364.444 262.666L365.526 263.206C366.083 263.493 366.586 263.874 367.012 264.333C367.639 264.952 367.996 265.794 368.004 266.675C367.834 267.427 367.608 268.165 367.328 268.883L367.102 269.243C367.102 269.243 367.102 269.559 366.832 269.829L366.382 270.595C366.16 271.069 365.872 271.51 365.526 271.902C365.081 272.998 364.569 274.067 363.994 275.101L363.138 276.677C362.867 277.173 362.552 277.849 362.282 278.254L361.696 279.426L361.065 280.552L359.939 282.67L359.939 283.03C358.826 284.904 357.357 286.542 355.614 287.851L354.487 288.572C354.234 288.653 354.002 288.791 353.811 288.977C352.369 290.179 350.623 290.959 348.765 291.23L348.18 291.23C345.569 291.819 342.86 291.819 340.25 291.23C339.197 290.99 338.159 290.689 337.141 290.329C334.802 289.538 332.632 288.316 330.744 286.725C328.43 284.978 326.626 282.645 325.517 279.966C325.497 279.712 325.42 279.466 325.292 279.246C324.698 278.254 324.157 277.231 323.67 276.182C323.627 275.915 323.489 275.673 323.283 275.499C323.076 275.326 322.814 275.232 322.544 275.236C321.372 275.236 320.156 274.965 319.12 274.965L316.732 274.695L314.93 274.695C314.93 274.695 309.433 274.335 308.081 274.335C307.488 274.47 306.872 274.47 306.279 274.335C305.53 274.266 304.776 274.266 304.026 274.335C302.88 274.338 301.751 274.06 300.737 273.524V273.524ZM343.269 278.344C343.709 278.483 344.18 278.483 344.62 278.344C345.116 278.344 345.521 278.119 345.882 278.119C346.128 278.089 346.364 277.999 346.568 277.858C346.772 277.717 346.938 277.528 347.053 277.308C348.029 276.576 348.791 275.596 349.261 274.47L349.757 273.614L349.982 272.893C350.252 272.397 350.432 271.902 350.703 271.406C350.973 270.91 350.973 270.28 350.252 269.919L349.351 269.469C348.729 268.968 348.048 268.544 347.324 268.207L345.702 267.306C344.395 266.63 342.953 265.864 341.692 265.324L341.376 265.324L340.971 265.324C340.971 265.324 340.971 265.324 340.971 265.684L340.52 266.54L339.754 268.027L339.484 268.478C339.115 269.121 338.813 269.8 338.583 270.505C338.178 271.226 337.952 271.992 337.592 272.668C337.492 272.975 337.492 273.306 337.592 273.614C337.9 274.581 338.498 275.43 339.304 276.047C340.42 277.123 341.78 277.912 343.269 278.344V278.344Z" fill="black"/>
<path d="M332.906 307.765C333.858 308.327 334.698 309.061 335.384 309.927C335.568 310.148 335.764 310.358 335.97 310.558C336.259 310.768 336.491 311.047 336.646 311.369L336.871 311.639C337.211 312.086 337.395 312.632 337.395 313.194C337.395 313.755 337.211 314.301 336.871 314.748C336.803 314.995 336.661 315.215 336.466 315.379L335.474 316.55L333.447 318.848L332.681 319.704C332.222 320.314 331.552 320.731 330.802 320.872C330.052 321.014 329.276 320.87 328.626 320.47C328.071 320.172 327.543 319.825 327.049 319.434L326.509 319.073C325.001 318.161 323.596 317.088 322.318 315.875L321.507 315.154L319.48 313.397C317.678 311.775 315.786 310.108 313.938 308.35C311.37 305.737 308.622 303.394 306.009 301.097L302.359 297.853C300.242 295.87 297.854 293.978 295.736 292.041L292.222 288.932L290.555 287.445L289.744 286.724C289.002 286.03 288.551 285.08 288.483 284.066C288.534 283.295 288.782 282.551 289.204 281.904L289.564 281.498L293.349 276.993L293.619 276.677C294.113 276.122 294.805 275.783 295.546 275.733C296.287 275.682 297.019 275.924 297.584 276.407L298.845 277.488L308.892 286.499L313.398 290.599L316.146 293.032L318.804 295.51L326.869 302.584L330.879 305.872L332.861 307.494L332.906 307.765Z" fill="black"/>
<path d="M297.133 308.531C298.082 310.146 299.2 311.656 300.467 313.036C300.943 313.52 301.352 314.066 301.684 314.658C302.405 315.739 303.125 316.64 303.891 317.677C305.198 319.434 306.504 321.146 307.721 322.858L311.776 328.174L312.407 328.985C313.22 330.002 313.943 331.087 314.569 332.229C314.569 332.229 314.569 332.5 314.93 332.68L315.29 332.905C315.29 332.905 315.56 333.401 315.786 333.671C315.975 334.008 316.075 334.388 316.075 334.775C316.075 335.161 315.975 335.542 315.786 335.879C315.215 336.704 314.549 337.46 313.803 338.131L313.488 338.131C312.921 338.4 312.379 338.716 311.866 339.077L310.514 340.159L309.974 340.519C309.447 340.894 308.817 341.095 308.171 341.095C307.526 341.095 306.896 340.894 306.369 340.519C305.778 340.116 305.247 339.631 304.792 339.077L301.729 334.887L300.017 332.68L298.079 330.022L294.475 325.516C294.137 325.126 293.863 324.685 293.664 324.21C293.349 323.804 293.168 323.308 292.898 322.948C292.658 322.58 292.352 322.26 291.997 322.002C291.997 322.002 291.727 321.596 291.456 321.551L290.916 320.785C289.623 318.732 288.224 316.747 286.726 314.838L285.284 312.946C284.419 311.987 283.453 311.126 282.4 310.378C281.997 309.785 281.545 309.228 281.049 308.711C280.908 308.51 280.741 308.328 280.553 308.17L280.238 308.17C280.013 307.855 279.877 307.81 279.157 308.17L278.751 308.441C276.994 309.792 275.102 311.144 273.299 312.36C272.847 312.635 272.41 312.936 271.993 313.261C271.452 313.622 271.002 314.072 270.371 314.568L270.101 314.838C269.699 315.153 269.239 315.383 268.746 315.516C268.253 315.648 267.739 315.679 267.234 315.608C266.729 315.536 266.244 315.363 265.807 315.099C265.371 314.835 264.992 314.486 264.694 314.072C264.384 313.701 264.098 313.309 263.838 312.901L263.388 312.36L262.802 311.549L261.54 309.882C261.243 309.489 260.986 309.066 260.774 308.621C260.537 308.175 260.445 307.667 260.509 307.167C260.574 306.666 260.792 306.198 261.135 305.827C261.464 305.354 261.859 304.93 262.306 304.566L266.316 301.502L268.389 299.925C268.539 299.81 268.706 299.719 268.884 299.655C269.814 299.138 270.702 298.55 271.542 297.898L272.984 296.726L273.57 296.276C275.507 294.879 278.075 293.167 280.193 291.77C280.465 291.57 280.751 291.389 281.049 291.23C281.397 291.096 281.772 291.051 282.142 291.098C282.511 291.145 282.863 291.283 283.166 291.5V291.5C283.482 291.815 283.662 291.861 283.887 292.086C284.522 292.636 285.123 293.223 285.689 293.843L286.23 294.564C286.47 294.918 286.742 295.249 287.041 295.555C287.401 295.555 287.537 296.051 287.807 296.411C289.159 298.529 290.69 300.466 292.312 302.403L293.033 303.349L294.205 304.881C294.912 305.609 295.559 306.393 296.142 307.224L296.773 307.99C296.908 308.125 297.133 308.395 297.133 308.531Z" fill="black"/>
</svg>
