<?xml version="1.0" standalone="no"?>
<!DOCTYPE svg PUBLIC "-//W3C//DTD SVG 20010904//EN"
 "http://www.w3.org/TR/2001/REC-SVG-20010904/DTD/svg10.dtd">
<svg version="1.0" xmlns="http://www.w3.org/2000/svg"
 width="1370.000000pt" height="1370.000000pt" viewBox="0 0 1370.000000 1370.000000"
 preserveAspectRatio="xMidYMid meet">
<metadata>
Created by potrace 1.14, written by Peter Selinger 2001-2017
</metadata>
<g transform="translate(0.000000,1370.000000) scale(0.100000,-0.100000)"
fill="#000000" stroke="none">
<path d="M7285 13678 c-16 -6 -37 -17 -46 -24 -8 -8 -19 -14 -23 -14 -4 0 -57
-41 -119 -91 -62 -50 -120 -97 -129 -104 -9 -7 -25 -18 -35 -23 -20 -10 -94
-9 -111 2 -6 3 -13 2 -16 -3 -4 -5 -14 -8 -24 -6 -9 1 -23 -2 -30 -8 -7 -5
-15 -7 -19 -4 -10 11 -60 -31 -72 -62 -10 -22 -26 -34 -71 -50 -33 -12 -65
-27 -72 -34 -7 -7 -25 -22 -40 -33 -23 -18 -77 -79 -106 -119 -19 -28 -113
-210 -112 -217 0 -2 -10 -25 -24 -53 -13 -27 -21 -51 -17 -53 11 -4 -5 -125
-20 -149 -7 -13 -26 -28 -41 -34 -15 -6 -27 -14 -26 -18 1 -3 -4 -24 -10 -46
-6 -22 -14 -65 -17 -95 -10 -104 -16 -155 -19 -175 -15 -80 -36 -133 -71 -180
-39 -53 -64 -271 -37 -322 11 -20 12 -24 12 -52 0 -11 6 -26 14 -34 18 -17 16
-132 -3 -166 -8 -14 -15 -61 -16 -105 -1 -45 -6 -89 -10 -98 -4 -10 -7 -28 -7
-40 2 -149 1 -186 -9 -220 -17 -66 -48 -111 -91 -134 -57 -30 -154 4 -228 80
-28 29 -43 36 -73 36 -33 0 -47 8 -95 55 -68 66 -113 83 -197 74 -33 -4 -69
-10 -81 -14 -14 -4 -27 -1 -38 10 -22 23 -106 54 -164 62 -79 10 -238 3 -262
-12 -5 -3 -20 0 -32 7 -50 27 -96 39 -172 43 -83 5 -132 -4 -201 -35 -22 -10
-56 -17 -75 -15 -19 2 -39 0 -44 -3 -6 -3 -26 -7 -45 -8 -20 -1 -47 -5 -61 -8
-14 -3 -35 -8 -47 -11 -13 -3 -33 -8 -45 -11 -13 -3 -27 -6 -33 -7 -5 -2 -14
-5 -20 -8 -5 -4 -22 -9 -37 -13 -14 -3 -47 -15 -72 -26 -26 -11 -48 -20 -51
-20 -3 0 -20 -8 -37 -18 -18 -11 -60 -34 -93 -52 -33 -18 -74 -44 -91 -57 -17
-12 -34 -23 -37 -23 -4 0 -15 -8 -25 -17 -10 -10 -36 -31 -58 -48 -54 -40
-191 -180 -234 -237 -19 -26 -40 -48 -47 -48 -6 0 -15 -15 -18 -32 -11 -51
-43 -145 -57 -170 -7 -13 -11 -26 -10 -30 1 -3 -5 -12 -13 -18 -8 -7 -15 -17
-15 -21 0 -5 -20 -29 -44 -54 -59 -58 -104 -155 -132 -277 -2 -10 -6 -28 -9
-39 -42 -195 -81 -281 -162 -365 -22 -22 -25 -39 -38 -199 -5 -61 -11 -98 -29
-190 -2 -11 -9 -32 -15 -47 -6 -16 -8 -28 -6 -28 3 0 -14 -36 -37 -80 -23 -44
-45 -80 -49 -80 -19 0 -37 -59 -37 -118 0 -55 -4 -69 -31 -107 -17 -23 -36
-56 -42 -71 -14 -38 -19 -133 -8 -140 5 -3 9 -13 9 -22 0 -10 9 -25 19 -34 32
-27 71 -51 71 -43 0 4 6 3 12 -3 17 -13 99 -8 129 9 13 7 29 19 36 28 17 22
63 118 66 139 10 55 72 142 101 142 8 0 16 6 19 13 3 7 39 37 82 66 60 42 85
54 116 54 33 1 46 7 74 38 45 50 91 71 151 68 45 -2 121 19 148 40 6 4 41 16
79 26 37 10 67 22 67 26 0 4 39 6 87 3 68 -3 90 -1 104 11 15 14 28 19 89 30
22 4 66 -21 75 -42 19 -43 23 -95 7 -101 -10 -3 -33 -22 -82 -66 -57 -52 -99
-115 -115 -171 -8 -29 -9 -39 -6 -68 1 -15 61 -85 61 -73 0 5 6 4 13 -2 18
-15 66 -22 72 -11 4 5 13 9 22 9 18 0 163 72 194 97 13 10 39 34 58 54 36 35
82 62 131 74 34 8 110 12 110 5 0 -3 9 -6 21 -7 11 -1 32 -15 45 -30 31 -36
32 -102 3 -158 -29 -56 -44 -69 -81 -71 -48 -2 -89 -21 -95 -44 -3 -11 -8 -20
-12 -20 -9 0 -58 -98 -66 -132 -4 -16 -11 -28 -15 -28 -17 0 -136 -126 -155
-165 -11 -22 -41 -61 -67 -86 -70 -70 -90 -117 -93 -219 -2 -92 -5 -108 -20
-127 -5 -7 -19 -24 -30 -39 -11 -14 -72 -79 -136 -144 -96 -97 -118 -125 -123
-157 -8 -44 -84 -203 -97 -203 -5 0 -9 -4 -9 -9 0 -4 -21 -39 -46 -77 -56 -83
-95 -159 -87 -168 4 -3 2 -6 -3 -6 -5 0 -10 -8 -11 -17 -5 -64 -22 -103 -46
-103 -18 0 -67 -62 -113 -144 -24 -43 -44 -80 -44 -83 0 -12 -64 -96 -96 -126
-35 -33 -37 -37 -38 -108 -1 -89 5 -140 17 -157 6 -7 7 -15 4 -18 -9 -9 31
-84 46 -85 6 0 22 -2 34 -5 17 -3 31 7 58 39 34 41 38 43 90 42 44 0 56 3 61
17 3 10 9 18 14 18 5 0 11 9 15 19 3 11 42 55 86 98 43 43 79 84 79 92 0 12
47 61 144 150 28 26 47 61 51 92 1 9 12 28 26 42 13 14 51 56 84 93 33 37 98
107 145 155 47 48 92 100 100 116 9 15 21 28 27 28 13 0 52 40 76 77 10 15 30
31 45 34 15 4 32 9 37 13 6 3 13 6 17 6 11 0 130 81 158 107 14 13 43 37 65
53 22 17 65 55 95 85 30 31 72 68 93 84 46 34 151 82 197 91 61 11 75 13 82
14 4 1 13 7 20 14 20 20 285 187 297 187 5 0 16 6 23 13 27 26 178 77 248 84
25 2 45 14 75 46 36 37 48 43 86 44 24 1 58 9 74 17 17 9 36 16 43 16 6 0 12
4 12 9 0 14 89 41 96 30 9 -15 105 -84 144 -104 74 -38 168 -105 196 -140 39
-49 96 -105 106 -105 18 0 151 -115 184 -158 18 -24 36 -61 40 -81 4 -20 11
-45 17 -56 12 -25 68 -74 84 -75 18 0 83 -68 83 -86 0 -8 19 -43 43 -77 46
-66 77 -126 77 -149 0 -8 18 -30 40 -48 42 -36 62 -82 54 -128 -3 -14 -7 -28
-8 -30 -2 -2 11 -18 29 -37 35 -38 90 -142 100 -190 7 -32 7 -110 0 -147 -3
-13 -8 -36 -12 -53 -3 -16 -8 -37 -9 -45 -1 -8 -5 -26 -8 -40 -13 -57 -14 -70
-7 -74 4 -3 7 -29 6 -58 -2 -54 -33 -125 -62 -141 -20 -12 -74 -98 -67 -108 3
-5 0 -9 -6 -9 -6 0 -9 -4 -5 -10 3 -5 -1 -25 -9 -45 -8 -19 -15 -36 -14 -38 2
-4 -24 -82 -31 -92 -8 -12 -8 -20 3 -97 10 -72 4 -95 -34 -135 -16 -18 -30
-35 -30 -39 0 -4 -9 -27 -20 -50 -12 -23 -23 -51 -25 -63 -2 -12 -7 -26 -10
-31 -4 -6 -7 -52 -7 -102 -1 -84 -8 -118 -38 -183 -5 -11 -12 -33 -14 -50 -4
-24 -17 -104 -21 -125 -2 -12 -29 -55 -37 -61 -5 -3 -9 -50 -10 -104 0 -54 -4
-112 -9 -129 -5 -18 -36 -54 -75 -90 -70 -63 -83 -86 -90 -155 -3 -24 -13 -56
-24 -71 -11 -15 -17 -30 -13 -34 3 -3 1 -6 -5 -6 -7 0 -12 -4 -12 -9 0 -5 -12
-35 -27 -67 -15 -33 -28 -63 -30 -69 -1 -5 -11 -36 -22 -69 -12 -32 -23 -79
-27 -105 -3 -25 -16 -64 -29 -86 -54 -95 -113 -214 -131 -265 -10 -30 -23 -58
-29 -62 -5 -4 -7 -8 -4 -8 4 0 0 -30 -8 -68 -9 -38 -15 -118 -15 -187 0 -66
-3 -124 -7 -130 -10 -14 -60 -135 -66 -160 -3 -11 -14 -56 -25 -100 -23 -90
-28 -115 -36 -165 -5 -37 -11 -68 -20 -110 -2 -14 -7 -41 -9 -60 -7 -56 -12
-76 -29 -109 -24 -46 -25 -98 -3 -171 10 -36 19 -72 18 -80 -2 -29 -7 -48 -17
-61 -20 -25 -73 -129 -67 -129 4 0 2 -5 -4 -11 -8 -8 -7 -24 1 -57 13 -49 13
-224 1 -302 -17 -108 -97 -214 -245 -325 -71 -54 -203 -166 -213 -182 -4 -7
-25 -20 -45 -29 -20 -8 -48 -23 -62 -32 -14 -9 -28 -17 -32 -18 -5 -1 -9 -2
-10 -4 -7 -5 -49 -11 -103 -15 -114 -8 -168 -32 -192 -87 -7 -16 -18 -28 -25
-28 -21 0 -152 -67 -170 -86 -40 -46 -20 -86 89 -173 48 -39 104 -78 123 -87
57 -26 112 -66 157 -114 24 -25 43 -48 43 -52 0 -5 10 -8 23 -8 13 0 64 -16
113 -35 49 -20 96 -37 104 -39 8 -2 22 -6 30 -9 29 -11 66 -19 110 -24 25 -3
46 -9 48 -13 15 -40 71 -66 159 -74 59 -6 76 -13 151 -68 74 -55 99 -59 183
-33 10 4 39 8 63 9 24 2 47 5 52 8 15 7 78 -2 137 -21 18 -5 68 -9 112 -9 81
1 231 -29 287 -58 32 -16 52 -18 43 -4 -5 8 67 27 85 23 61 -14 120 -19 180
-15 14 1 32 2 40 2 28 -1 135 7 195 16 60 8 143 9 200 3 17 -2 54 3 83 10 30
8 64 10 80 5 15 -4 36 -8 48 -9 11 -1 25 -4 30 -8 18 -11 96 13 114 35 14 18
29 22 106 24 127 4 152 9 217 39 50 23 72 27 145 27 48 0 110 -3 137 -6 78
-10 249 -14 260 -8 6 4 15 7 20 7 6 0 10 11 10 23 1 27 36 72 57 72 8 0 24 -9
35 -19 12 -11 23 -18 25 -15 3 2 28 6 56 7 108 7 131 46 138 239 l4 141 -32
26 c-44 35 -88 80 -88 89 0 4 -10 12 -22 17 -13 6 -35 34 -49 63 -28 57 -118
149 -186 188 -37 22 -52 39 -58 69 -8 34 -36 85 -52 93 -10 5 -41 15 -69 21
-51 12 -51 12 -94 97 -52 103 -89 146 -130 149 -59 5 -106 48 -141 129 -15 32
-37 63 -56 76 -44 30 -113 99 -113 113 -1 14 -35 57 -45 57 -10 0 -35 28 -35
39 0 6 -14 23 -31 38 -17 16 -46 60 -65 100 -21 43 -42 74 -54 78 -11 4 -20
11 -20 17 0 23 -75 166 -109 208 -48 60 -93 105 -112 112 -9 4 -20 24 -24 45
-5 21 -10 45 -12 53 -2 8 -6 51 -8 95 -4 95 15 150 70 199 51 46 57 71 36 152
-20 79 -14 114 24 134 14 7 25 19 25 27 0 7 4 13 8 13 5 0 9 6 9 13 0 6 5 30
11 52 6 22 14 60 17 85 7 55 24 98 48 126 14 16 19 40 21 100 1 44 5 84 9 91
9 14 19 75 22 133 2 25 3 48 4 53 1 4 12 13 26 19 24 11 38 43 52 118 2 14 11
59 19 100 18 93 32 166 48 260 3 14 5 25 6 25 1 0 3 9 4 20 2 17 12 70 21 110
28 124 94 317 125 365 24 36 30 58 18 62 -23 8 -10 60 25 96 19 20 41 50 50
67 13 26 13 34 0 70 -9 22 -17 82 -18 133 -3 81 -1 96 16 113 10 10 19 23 19
28 0 5 15 16 34 25 46 22 66 68 68 164 1 41 6 57 19 65 11 7 19 17 19 24 0 7
4 13 10 13 5 0 8 16 5 35 -5 42 -12 55 -29 55 -7 0 -20 8 -29 18 -14 16 -13
25 17 114 42 127 41 222 -3 269 -11 12 -18 26 -15 30 3 5 7 41 9 80 3 58 -1
81 -19 123 -14 32 -20 59 -16 71 4 11 7 46 6 78 -1 31 3 57 7 57 5 0 5 4 2 10
-3 5 -1 37 6 69 11 56 10 61 -12 93 -44 60 -68 120 -95 227 -15 58 -28 116
-29 128 -4 31 -48 125 -68 144 -9 9 -25 45 -37 80 -11 35 -26 75 -33 89 -19
39 -64 80 -92 81 -14 1 -30 2 -37 3 -7 0 -18 12 -24 26 -124 253 -218 446
-219 450 -1 3 -13 31 -28 64 -15 32 -27 61 -27 65 0 23 -50 120 -72 139 -48
41 -65 81 -67 165 -1 48 -9 93 -20 117 -29 65 -27 142 5 200 15 28 30 50 35
50 13 0 28 82 28 155 0 17 0 55 0 85 -1 48 4 90 15 125 12 37 29 75 34 75 4 0
24 16 46 35 21 20 43 32 50 28 6 -4 20 -9 31 -10 11 -2 31 -7 45 -13 14 -5 43
-12 65 -16 22 -3 51 -8 65 -10 14 -3 63 -4 110 -3 159 2 172 2 179 -7 6 -10
115 -64 126 -64 4 0 21 -6 38 -14 29 -12 111 -39 130 -42 4 -1 8 -2 10 -3 1
-2 13 -5 27 -7 53 -10 276 -67 334 -86 75 -24 182 -77 255 -125 58 -38 82 -58
161 -129 25 -23 63 -47 85 -54 59 -19 83 -38 95 -75 6 -18 19 -35 28 -38 22
-7 71 -37 96 -59 11 -10 25 -18 30 -18 6 0 22 -16 36 -35 14 -19 51 -49 83
-67 32 -18 64 -37 70 -43 12 -9 26 -14 53 -19 7 -1 24 -17 39 -34 26 -31 104
-78 142 -86 10 -1 27 -6 38 -10 133 -48 161 -62 201 -101 39 -38 59 -48 124
-62 53 -11 121 -4 145 15 14 12 26 23 26 26 -1 3 -1 7 0 9 14 46 -8 113 -106
312 -46 94 -87 183 -90 197 -4 15 -13 32 -21 39 -8 6 -14 17 -14 24 0 7 -6 18
-14 24 -7 6 -19 38 -26 70 -10 48 -20 66 -56 100 -54 53 -87 109 -110 186 -22
73 -21 70 -23 95 -2 29 -93 117 -130 125 -49 11 -69 52 -87 180 -6 47 -30 94
-48 95 -8 0 -69 46 -118 89 -15 13 -30 32 -33 41 -6 20 -38 36 -89 45 -20 4
-36 12 -36 17 0 20 -64 101 -103 129 -64 47 -176 76 -312 82 -36 2 -43 6 -66
47 -15 25 -39 56 -53 69 -40 37 -35 75 13 106 35 23 45 25 107 21 38 -3 80 -8
94 -11 71 -17 200 5 200 33 0 12 44 31 88 38 21 3 47 15 60 27 12 11 22 18 22
14 0 -3 12 0 26 7 19 10 32 11 53 3 25 -9 31 -7 69 31 42 42 81 55 197 67 144
15 177 26 229 77 38 36 89 58 173 75 32 6 33 6 95 22 45 13 96 56 124 107 11
19 101 74 119 72 6 -1 17 1 25 5 8 3 55 19 103 36 49 17 101 40 117 51 25 18
39 19 151 15 174 -8 228 -6 250 6 31 16 59 68 50 93 -4 11 -6 31 -5 43 2 29
-44 70 -136 122 -39 23 -75 41 -78 41 -19 0 -84 58 -108 97 -26 40 -42 51
-140 99 -102 49 -164 96 -164 125 0 5 -3 8 -7 7 -5 -1 -28 2 -53 7 -25 5 -47
9 -50 9 -3 1 -27 10 -53 21 -42 17 -65 44 -59 68 1 4 -2 7 -7 7 -5 0 -11 9
-14 20 -10 40 -108 33 -122 -9 -3 -10 -11 -18 -18 -19 -6 0 -25 -3 -42 -5 -35
-5 -97 20 -162 64 -46 32 -89 38 -153 23 -31 -7 -128 -7 -294 0 -114 5 -131 8
-152 27 -26 25 -60 23 -135 -6 -30 -12 -53 -15 -65 -10 -22 10 -16 8 -84 27
-111 33 -231 42 -340 26 -69 -10 -263 -69 -272 -83 -4 -5 -40 -11 -80 -12 -61
-1 -123 -8 -173 -18 -48 -10 -214 -88 -282 -133 -13 -8 -23 -11 -23 -7 0 3
-12 -3 -26 -14 -14 -11 -46 -30 -72 -42 -26 -13 -50 -27 -54 -33 -4 -6 -8 -7
-8 -2 0 5 -7 3 -15 -4 -8 -7 -15 -9 -15 -4 0 4 -6 1 -12 -8 -7 -8 -38 -28 -68
-44 -30 -16 -56 -32 -58 -36 -2 -5 -8 -8 -14 -8 -5 0 -23 -9 -39 -21 l-29 -20
-34 34 c-36 36 -59 96 -51 135 2 12 17 41 33 64 39 58 50 94 55 196 0 12 4 22
8 22 4 0 10 21 14 48 4 26 10 52 13 57 4 6 8 15 9 20 42 174 51 229 52 306 1
21 9 44 22 57 30 33 45 76 63 182 9 52 21 97 27 100 15 10 14 77 -2 105 -5 9
-18 55 -20 70 0 2 -5 19 -10 37 -28 90 -32 204 -8 219 8 5 10 9 6 9 -4 0 -3 9
2 19 10 17 20 85 25 169 1 17 -1 32 -6 32 -5 0 -5 7 0 17 13 23 -10 108 -41
148 -76 101 -114 142 -139 153 -17 7 -79 62 -137 121 -86 87 -148 136 -164
130 -1 0 -15 -5 -32 -11z"/>
</g>
</svg>
