<svg width="445" height="685" viewBox="0 0 445 685" fill="none" xmlns="http://www.w3.org/2000/svg">
<path d="M245.286 0.598792C246.309 0.598792 247.341 1.4153 248.477 1.53932C251.131 4.3299 254.115 7.06879 256.666 9.31159C257.275 9.8697 257.636 11.1513 258.555 12.0712C259.371 12.8877 260.827 13.2391 262.355 13.7868C264.183 16.5878 267.394 19.6574 268.923 22.4066C269.429 23.3782 269.914 25.2385 269.997 26.8199C270.275 27.1713 270.73 26.6855 270.73 27.6984C270.73 28.7113 269.914 28.3598 269.914 29.3831V37.021C269.914 38.0442 267.064 42.7778 267.064 43.7907C267.064 44.8036 271.545 59.2732 271.545 60.2964C271.545 62.6322 269.253 63.5418 268.788 65.6295C268.386 67.6139 269.542 70.2392 268.933 72.1719C268.324 74.0013 265.969 75.0968 265.112 77.0812C264.297 78.9209 265.536 81.5048 265.278 83.5409C265.123 84.7605 263.749 86.2178 263.491 87.2306C262.934 89.6181 263.14 92.0987 262.83 94.5378C262.779 95.0029 261.798 95.251 261.447 96.2122C260.373 99.1681 260.951 98.8477 260.951 100.222C260.951 101.246 259.98 102.692 259.836 103.912C259.629 105.545 259.918 107.798 259.154 109.276C258.493 110.599 255.251 113.152 255.251 115.095C255.251 117.183 256.273 114.661 256.934 120.469C257.967 120.811 259.288 122.113 259.991 123.25C262.304 122.34 261.601 121.741 263.481 120.521C265.567 119.198 268.861 118.795 270.09 116.862C272.299 116.377 274.943 114.299 277.029 113.183C278.763 112.263 281.531 111.178 283.472 110.465C284.742 110.01 285.63 108.139 287.51 107.064C290.515 105.328 294.387 104.853 297.443 104.191C300.138 103.633 303.505 103.271 306.272 103.53C310.165 100.109 316.227 100.109 320.14 99.4472C322.99 98.9924 328.515 98.3723 329.537 98.3723C336.714 98.3723 331.829 97.6178 341.804 100.522C342.827 100.77 343.178 101.638 344.19 101.638C346.833 101.638 347.091 99.6022 350.303 99.6022C351.728 99.6022 352.543 99.3231 354.464 101.659C365.616 101.638 362.859 101.69 366.226 102.3C366.979 102.403 368.425 102.455 369.447 102.455C370.47 102.455 378.41 101.235 379.422 101.235C383.14 101.235 383.749 106.124 391.432 106.124C392.454 106.124 393.352 106.165 394.168 105.597C394.581 105.338 394.498 104.625 394.653 104.232C395.469 104.088 396.512 102.858 397.534 102.858C400.642 102.858 400.054 104.553 401.438 107.395C402.491 107.757 403.307 109.194 404.525 109.648C406.817 110.465 409.791 110.609 412.166 111.168C412.786 112.78 414.356 114.32 415.553 115.374C418.785 116.728 422.317 118.072 425.58 120.108C426.798 120.873 427.728 123.022 428.74 124.552C429.297 125.42 430.444 125.389 430.908 125.844C432.746 127.828 435.834 129.399 438.178 129.875C439.592 131.022 441.709 132.169 443.537 134.309C444.301 135.229 444.136 136.882 444.136 137.905C444.136 142.546 439.562 143.197 437.631 143.197C436.608 143.197 430.506 142.381 429.483 142.381C428.461 142.381 424.362 142.009 422.017 142.877C421.047 143.228 420.045 144.551 418.775 145.058C417.247 145.719 415.398 145.626 413.87 146.132C412.858 146.443 411.939 147.507 410.617 147.91C408.831 148.468 404.277 149.285 403.513 150.814C401.634 154.742 398.639 156.881 395.128 157.698C391.463 158.566 384.73 158.566 382.19 163.351C380.909 163.951 379.02 163.672 378.101 164.426C373.578 168.095 368.26 164.488 364.646 166.876C363.221 167.796 361.847 169.17 360.557 170.876H358.884C357.872 170.886 358.636 170.069 357.614 170.069C356.591 170.069 354.846 171.279 353.638 171.775C353.256 172.064 353.308 172.416 353.101 172.736C349.57 173.532 347.256 172.922 345.78 175.589C343.415 176.178 339.502 177.408 338.479 177.408C337.457 177.408 331.561 175.775 330.539 175.775C327.028 175.775 324.023 177.253 324.023 180.26C324.023 181.883 325.437 181.955 327.069 183.681C328.091 184.694 328.494 186.513 328.99 188.105C329.279 188.487 329.32 188.808 330.332 188.808C331.344 188.808 333.182 187.991 334.204 187.991C339.853 187.991 342.228 190.306 348.33 193.004C350.571 193.975 351.284 197.066 352.43 199.288C353.968 199.412 356.034 200.228 357.996 200.786C359.679 204.89 364.708 207.205 367.816 209.809C367.991 211.825 368.373 214.191 369.447 216.228C370.057 217.447 368.404 220.062 371.099 221.674C372.576 221.674 374.559 222.594 375.777 223.927C376.283 224.486 377.429 224.765 377.987 225.581C378.09 225.736 378.452 227.162 379.216 227.721C379.804 230.129 380.104 232.568 380.713 235.017C380.92 235.834 382.128 236.402 382.479 237.116C382.995 238.139 383.119 240.04 383.935 241.053C384.751 242.118 387.27 242.48 387.786 243.958C388.695 246.552 389.108 251.161 392.247 254.221C392.423 254.986 392.154 255.854 392.505 256.567C395.355 262.272 397.834 267.646 401.603 273.352C402.666 274.933 403.007 278.664 403.007 279.677C403.007 282.685 400.209 283.749 398.329 283.749C397.317 283.749 392.619 282.519 389.686 282.344C385.907 277.61 379.732 276.266 376.273 273.641C376.273 273.641 375.984 273.548 375.602 273.641C373.495 274.902 372.948 273.889 370.955 272.98C369.53 272.318 368.435 270.22 367.268 268.732C366.917 268.659 366.06 268.639 365.771 268.494C363.231 267.429 360.35 265.786 357.552 263.957C357.015 262.84 356.013 261.59 354.629 260.577C352.595 259.047 349.755 257.631 346.936 255.761C347.38 251.678 341.36 251.161 339.646 250.107C338.386 247.358 335.96 248.05 334.287 246.883C332.304 245.508 330.89 242.914 329.01 241.849C323.155 238.49 317.239 234.635 310.723 232.496C306.086 230.966 299.984 232.093 294.955 230.615C293.075 230.056 290.473 229.519 288.284 228.144C285.992 226.666 283.792 225.436 281.789 223.927C281.417 223.834 281.469 223.845 280.457 223.845C279.445 223.845 275.366 225.478 274.344 225.478C272.661 225.478 273.859 224.61 272.072 224.351C269.274 223.948 265.98 223.535 262.717 223.287C261.498 223.194 259.681 221.809 258.659 221.809C257.636 221.809 257.244 222.791 256.583 223.256C247.878 229.416 253.702 239.255 250.955 246.138C250.707 246.8 250.15 247.627 249.695 248.092C246.845 251.048 247.052 251.409 247.052 253.601C247.052 254.624 247.868 257.053 247.95 259.037C248.229 259.388 249.055 260.215 249.324 260.649C249.489 261.073 249.499 261.352 249.499 262.365C249.499 263.378 248.684 265.827 248.684 266.851C248.684 267.874 250.398 270.137 251.213 272.07C251.616 273.042 253.495 273.827 254.208 274.995C254.766 275.967 254.941 277.837 255.303 279.015C255.705 280.287 256.975 281.393 257.481 282.674C257.729 283.387 257.481 284.411 257.729 285.124C258.235 286.395 260.414 287.759 261.126 289.186C261.632 290.26 260.982 291.749 261.395 292.875C262.613 296.234 264.947 299.573 266.682 303.045C267.033 303.759 268.52 304.585 268.881 305.505C269.284 306.622 269.862 308.42 269.955 310.001C270.596 310.973 272.712 310.838 274.251 311.221C275.924 313.195 277.979 314.849 279.063 316.626C279.228 318.197 278.908 320.285 279.724 322.218C280.126 323.189 281.655 323.634 282.316 325.06C283.493 327.51 284.05 329.411 284.763 331.292C285.826 334.248 285.372 338.217 286.642 341.783C286.993 342.754 288.573 343.602 289.234 345.018C289.843 346.237 289.451 348.728 291.227 349.142C291.434 349.958 291.847 350.403 291.847 351.426C291.847 352.449 290.628 354.33 290.628 355.353V362.578C290.628 363.601 289.812 363.849 289.812 364.872C289.812 365.895 292.662 370.371 292.662 371.394C292.662 372.417 291.444 375.27 291.444 376.283C291.444 377.295 291.444 377.688 291.526 378.453C291.805 378.815 292.538 379.156 292.869 379.321C293.468 382.567 294.284 387.91 294.284 388.923C294.284 389.936 290.618 396.251 290.618 397.274C290.618 398.142 291.692 398.607 293.633 399.248C294.232 400.002 294.686 400.736 294.686 401.759C294.686 403.847 293.767 404.292 291.826 406.317V411.485C291.826 412.498 290.556 415.34 289.544 416.446C288.821 416.622 288.078 416.601 287.262 417.108C286.859 417.407 286.942 418.1 286.746 418.844C286.436 419.051 285.661 419.423 284.897 420.177V430.234C284.907 431.257 286.539 431.712 286.539 432.725C286.539 438.678 281.655 437.717 281.655 441.489C281.655 442.502 282.471 443.329 282.471 444.342C282.471 445.354 280.818 448.3 279.817 450.233C279.528 450.419 278.763 450.781 278.464 451.173C277.555 452.796 276.76 454.264 276.461 455.587C275.996 457.571 276.925 459.69 276.616 461.684C276.151 464.94 274.571 468.227 273.611 471.493C273.404 472.258 274.013 473.24 273.755 473.963C273.249 475.234 272.186 476.371 271.99 477.591C271.835 478.407 272.237 479.689 272.144 480.299C271.071 485.342 269.852 490.634 268.83 495.895C267.653 496.102 266.568 496.825 265.784 497.993V505.217C265.784 506.241 263.749 509.341 263.749 510.365C263.749 511.388 264.565 513.827 264.565 514.85C264.565 516.431 262.097 517.021 260.982 519.615C260.321 521.144 260.899 523.201 260.899 524.224C260.899 525.248 259.908 528.906 258.69 531.046C258.132 532.017 256.376 533.123 255.282 534.301C255.199 534.663 255.199 534.612 255.199 535.635C255.199 536.658 257.234 541.34 257.234 542.363C257.234 543.386 256.779 544.13 256.18 544.823C253.64 545.763 250.718 551.179 250.718 552.554C250.718 553.577 251.12 557.649 251.12 558.662C251.12 559.675 251.348 563.602 252.411 565.484C252.917 566.403 254.445 566.445 255.365 567.158C257.502 568.884 262.107 577.318 263.563 579.044C263.729 579.808 264.142 581.049 264.214 582.175C269.48 584.604 266.723 589.689 272.093 592.056C272.33 593.575 273.425 595.291 275.738 596.108C277.318 600.769 281.469 603.167 284.319 605.42C284.701 608.252 287.768 613.068 290.876 614.143C291.64 614.401 292.477 613.874 293.189 613.998C296.493 616.778 297.671 619.042 299.395 622.659C299.849 623.631 300.035 625.233 301.109 625.998C302.947 627.269 305.074 626.928 307.15 627.031C309.277 628.013 308.503 631.362 309.009 632.333C309.515 633.305 310.144 633.625 310.217 634.349C312.489 635.506 314.905 637.532 317.249 638.483C317.848 639.237 318.261 640.519 318.777 641.284C319.035 641.687 319.996 641.687 320.553 642.503C321.978 644.643 321.803 648.271 324.973 648.25C325.603 649.459 326.367 650.462 327.224 651.888C327.627 652.601 328.928 652.208 329.485 652.767C330.094 653.376 330.394 654.255 331.292 654.741C330.91 662.999 330.91 667.267 330.91 668.29C330.91 669.975 328.112 673.789 326.181 673.779H320.419C319.944 672.869 319.51 672.569 318.498 672.569C316.918 672.569 314.977 673.882 315.824 676.941C314.492 677.448 313.201 678.274 312.189 678.274C307.759 678.274 303.949 676.238 299.767 676.238C298.755 676.238 296.122 677.148 294.49 677.303C292.043 677.51 289.131 676.89 286.787 677.551C286.023 677.758 285.259 678.605 284.649 679.308C283.926 679.494 283.1 679.081 282.378 679.174C279.115 681.344 275.604 679.69 271.783 679.969C271.442 680.61 270.606 681.458 269.986 682.171C268.437 682.347 265.969 683.163 264.957 683.163C263.945 683.163 261.292 681.53 260.28 681.53C259.268 681.53 254.776 683.163 253.764 683.163C252.752 683.163 252.287 682.347 251.275 682.347H244.863C243.841 682.347 243.335 683.566 242.312 683.566H231.418C231.109 683.566 230.344 684.383 228.93 684.383C227.907 684.383 222.207 682.75 221.195 682.75C220.183 682.75 218.748 684.786 217.736 684.786C214.483 684.786 212.305 681.985 210.167 681.623C206.15 680.91 201.658 681.375 197.58 681.375C195.545 681.375 192.086 679.081 191.064 679.081C190.042 679.081 180.686 681.52 179.664 681.52C176.463 681.52 171.568 676.321 169.844 675.908C167.5 675.349 164.505 675.401 161.81 674.843C160.282 674.533 159.869 672.683 158.784 671.401C157.205 670.916 155.005 671.422 153.229 670.761C150.327 669.644 145.154 668.011 142.149 667.091C141.746 666.988 141.044 666.161 140.084 665.707C139.371 665.355 138.504 665.624 137.616 665.438C134.911 661.614 131.193 658.482 126.175 656.601C124.76 651.878 115.539 652.746 115.539 646.276C115.539 643.165 125.875 639.506 126.206 639.444C126.959 638.028 128.436 635.858 130.016 635.186C134.601 633.202 138.824 634.731 143.347 632.902C143.739 632.654 143.657 632.354 143.791 631.982C144.978 631.424 146.259 630.597 147.415 630.452C152.042 626.06 159.703 620.479 163.627 615.683C164.392 614.763 165.879 615.125 166.942 614.567C167.809 614.102 172.539 605.471 172.539 602.474C172.539 601.451 171.32 600.438 171.32 599.415C171.32 598.392 172.136 599.26 172.136 598.247V589.586C172.136 588.563 171.32 588.821 171.32 587.808C171.32 586.795 172.095 584.108 172.663 582.733C172.962 581.969 174.542 581.162 174.842 580.201C175.348 578.672 176.205 576.387 176.205 575.375C176.205 574.362 173.757 568.243 173.757 567.22C173.757 566.197 175.451 564.057 176.06 561.866C177.433 557.132 177.124 551.531 178.352 546.487C178.755 544.802 179.881 543.252 180.552 541.474C181.419 539.128 180.511 534.922 182.039 532.172C183.061 530.333 185.023 529.361 185.168 526.86C185.426 522.374 184.765 521.372 184.765 520.349C184.765 519.325 185.983 508.732 185.983 507.719C185.983 506.706 190.682 500.349 192.365 496.639C192.675 495.926 192.313 494.903 192.623 494.283C193.129 493.259 194.606 491.947 195.215 490.52C196.237 488.226 195.36 485.074 196.279 482.779C196.991 481.001 199.273 479.182 199.686 477.901C200.037 476.733 199.49 474.935 199.944 473.808C200.708 472.03 202.743 469.984 203.765 467.689C204.426 466.211 203.466 463.752 204.436 461.974C205.603 459.783 209.279 458.594 211.117 455.845C211.778 454.822 212.46 452.951 212.46 451.938V442.874C212.46 441.851 214.969 440.207 215.578 438.378C216.187 436.445 214.835 433.593 215.857 431.908C218.449 427.836 218.573 426.213 218.573 423.361C218.573 422.337 217.757 417.862 217.757 416.839C217.757 415.816 218.779 415.63 219.285 415.072C220.917 413.19 221.887 409.428 222.817 407C225.006 406.648 225.088 402.876 225.088 401.15C225.088 400.126 223.87 397.687 223.87 396.664C223.87 395.641 225.419 393.677 226.183 391.899C226.999 390.008 227.04 387.331 227.649 385.398C228.258 383.559 229.332 382.153 230.551 380.934C231.005 380.468 232.048 379.952 232.709 378.835C233.721 377.047 234.464 373.637 234.464 372.624C234.464 371.611 233.649 370.381 233.649 369.358C233.649 362.681 236.901 359.932 236.901 357.544C236.901 356.521 234.175 348.615 232.296 344.801C231.738 343.622 230.881 342.424 229.291 341.111C229.58 339.375 230.272 337.266 229.456 335.84C228.537 334.207 226.823 333.06 225.254 332.047C224.717 330.517 224.572 328.708 223.756 327.282C222.589 325.091 220.669 322.828 219.11 320.729C219.254 316.078 212.212 314.663 210.962 312.585C210.849 311.727 210.188 310.952 210.136 310.094C209.733 305.309 205.469 302.332 201.142 298.105C199.872 296.834 196.692 296.193 195.525 294.56C194.657 293.34 194.286 291.49 193.005 290.364C190.971 288.586 187.739 287.842 185.374 286.436C184.837 285.744 184.724 284.256 183.66 283.439C183.051 282.974 181.554 283.15 180.841 282.798C179.106 281.93 177.537 280.473 175.946 278.974C175.585 278.891 175.637 278.891 174.614 278.891C172.27 278.891 174.005 279.481 170.443 281.568C168.253 282.84 165.6 282.664 163.08 282.654C161.924 283.728 160.333 284.907 159.032 287.025C156.895 287.056 154.447 287.098 152.465 287.563C151.143 287.863 150.1 289.103 148.727 290.126C148.52 290.281 147.519 290.095 146.806 290.405C144.669 291.325 141.922 293.309 139.733 294.229C139.124 294.488 138.132 294.467 137.471 294.88C136.098 295.697 135.148 297.826 134.084 298.684C133.165 299.397 131.678 299.025 130.501 299.387C129.231 299.79 128.137 301.278 126.867 302.384C125.586 302.549 124.316 302.177 123.201 302.632C119.432 304.213 115.157 306.177 111.852 308.72C109.921 310.198 108.228 311.831 106.968 313.763C106.503 313.949 106.08 313.96 105.708 314.042C102.487 316.771 100.091 319.727 96.3838 322.724C95.4648 323.489 93.3686 322.91 91.8404 323.427C90.8181 323.737 90.1675 324.967 89.0317 325.039C87.8751 326.91 86.636 328.574 85.18 330.104C83.4556 329.907 82.867 331.23 82.4333 333.018C80.9154 334.29 79.3664 335.23 77.7865 337.111C77.2806 337.721 77.3219 338.848 76.7126 339.561C74.5751 342.01 71.3121 343.902 69.2262 346.093C67.8012 347.622 66.7066 350.888 65.1577 351.395C64.693 352.945 64.1354 354.692 63.3197 356.624C62.9169 357.596 61.1822 358.464 59.2925 359.281C56.7419 360.397 55.73 363.921 55.1311 365.244C53.2414 366.154 52.1158 368.521 50.2365 370.143C49.018 371.208 47.6756 371.983 46.8702 373.347C46.4675 374.009 46.3332 375.425 45.4452 376.283H39.7658C37.649 379.621 37.4838 380.375 34.9952 380.375C33.9729 380.375 33.4462 380.334 32.6821 379.714C32.5582 378.98 31.7528 377.988 31.443 376.975C30.5756 374.267 30.1109 368.965 30.1109 367.942C30.1109 366.919 30.1109 364.624 30.6582 363.032C35.8935 359.467 38.7332 351.746 41.2321 347.467C42.6055 345.069 45.249 344.15 46.6843 342.971C47.624 340.17 47.6963 336.109 49.3691 333.204C51.8164 329.029 55.5751 325.101 58.074 320.977C59.3441 318.89 59.086 315.035 59.9533 313.35C61.5849 310.146 64.1148 309.226 66.1387 307.159C66.4898 307.035 67.192 307.128 67.4501 306.715C70.042 303.045 73.2947 298.984 75.3083 295.769V285.992C75.3083 284.969 79.6349 281.527 81.8653 278.984C82.7844 277.91 83.2697 276.018 83.9822 274.644C85.3556 271.894 88.8974 270.365 91.0865 267.977C92.3566 266.603 92.2018 264.815 92.5115 263.192C92.6148 262.675 93.8436 261.962 94.5045 261.301C95.0105 260.794 95.0827 259.771 95.3822 259.161C96.8588 256.515 100.06 257.125 102.301 256.784C104.242 255.378 105.44 250.965 105.44 248.361C105.44 245.405 102.487 243.069 100.958 243.069C99.936 243.069 93.8952 244.681 90.2914 245.973C89.0213 248.164 87.0697 249.807 84.5708 251.44C83.9099 251.844 82.4126 251.761 81.7001 252.112C80.7295 252.567 80.2751 253.539 79.511 253.89C76.8159 255.11 76.1653 256.102 74.0795 256.102C70.7235 256.102 67.5637 252.484 67.5637 249.787C67.5637 247.854 67.9045 247.224 70.3001 243.958C71.0643 242.893 71.0849 240.878 72.5099 239.451C73.1191 238.842 74.317 239.1 75.0295 238.842C76.2996 238.335 77.3941 237.012 78.4371 235.824C78.5713 235.441 78.561 235.317 78.561 234.294C78.561 230.015 75.1534 228.795 73.274 228.795C71.3947 228.795 70.8061 230.098 68.5034 231.08C67.8218 231.235 67.3675 231.245 66.3555 231.245C65.3436 231.245 63.9186 230.428 62.8963 230.428C61.874 230.428 60.0876 231.214 58.7658 231.886C57.7436 232.392 55.9468 232.144 54.8213 232.558C53.8506 232.909 53.3137 233.87 52.405 234.325C51.6925 234.687 50.2365 234.108 49.5756 234.563C48.9148 235.017 47.8615 235.865 47.0457 235.968C45.4142 236.227 43.3077 235.255 41.3767 235.813C39.1876 236.475 37.7832 239.338 35.5115 241.26C34.3446 241.012 33.1468 240.64 32.0316 241.095C30.2555 241.86 28.8615 243.12 27.4365 244.082C26.4658 244.691 25.1028 245.89 24.0598 246.242C24.0082 246.562 23.9875 247.027 23.7604 247.348C18.9794 247.627 19.4544 253.125 17.7299 256.236C16.4598 258.479 15.0245 260.463 13.5995 262.82C11.6479 263.409 7.72392 264.236 6.71197 264.236C5.94783 264.236 0.774468 259.636 0.526641 259.078C0.268489 258.52 0 256.908 0 255.885C0 252.619 2.93263 249.26 4.89459 246.045V238.697C6.5571 236.609 8.11633 234.377 9.24187 232.547C10.1093 231.121 11.6582 229.199 12.0712 227.307C12.887 223.741 12.1642 219.525 12.7321 215.907C12.887 214.739 14.2603 213.344 14.2603 212.321V206.481C15.9435 204.786 17.637 203.515 18.5973 201.582C21.2408 196.135 23.9772 188.87 24.5348 182.503C24.793 179.444 26.8995 176.312 28.6756 173.087C29.0473 172.943 29.7495 173.036 30.018 172.622C30.9886 171.392 31.6598 170.369 32.4653 169.346C33.6424 167.92 33.5185 165.904 34.3343 164.581C36.1723 161.729 38.0723 158.39 37.9174 155.073C38.4751 155.011 38.8158 155.021 39.1669 154.897C40.7571 152.644 43.0598 149.977 45.755 147.021C47.4381 145.182 49.08 142.525 51.3724 140.489C52.7457 139.27 54.9142 139.456 56.2876 138.588C59.3441 136.655 61.9153 134.195 65.2713 132.717C69.443 130.877 72.9436 130.619 76.7539 127.022C77.0947 126.898 77.9724 127.002 78.7365 126.743C79.1392 126.64 79.7692 125.565 80.7914 125.368C85.1697 124.397 90.1882 124.449 95.0001 124.314C97.2306 121.865 101.547 121.999 105.264 121.999C106.287 121.999 109.436 121.648 111.419 122.103C112.74 122.413 114.217 124.438 115.239 124.438C116.262 124.438 123.996 123.219 125.008 123.219C126.02 123.219 132.422 124.004 135.468 125.379C137.606 126.35 137.833 127.704 139.051 127.704C140.074 127.704 140.094 127.818 140.569 126.908H149.584C152.692 126.898 154.158 131.911 155.439 132.624C156.864 133.44 158.557 133.42 160.117 133.11C163.607 135.9 168.563 139.931 169.586 139.931C170.608 139.931 172.828 139.115 174.418 138.97C179.065 136.386 177.485 131.384 178.352 127.053C179.271 122.671 177.95 121.772 178.074 120.976C178.848 120.407 178.91 119.725 179.013 118.919C179.261 116.883 179.168 113.038 179.168 112.015C179.168 110.992 180.015 109.049 180.8 107.881V101.37C180.8 100.357 180.5 101.194 180.118 100.977C179.881 96.9046 177.95 94.5998 177.95 91.8506C177.95 90.8274 179.581 85.1222 179.705 81.7735C182.565 79.7684 182.948 77.4946 183.505 75.3035C184.218 72.5543 183.454 69.495 184.166 66.8491C184.218 66.6011 185.075 65.9706 185.126 65.1541C185.436 61.8984 186.5 58.6324 186.964 54.8393C188.668 54.6739 190.971 52.2348 190.971 50.9635V44.3488C190.971 43.3256 193.955 37.1037 195.587 34.6128C196.351 33.4346 198.117 32.5974 198.984 30.861C199.696 29.3831 199.614 26.8612 200.884 25.1249C201.999 23.5952 204.312 22.2619 205.841 21.4971C207.617 20.6289 210.456 20.2362 212.243 19.213C213.358 18.5515 213.069 16.7014 213.936 15.8333C214.804 14.9651 215.95 13.6835 217.23 13.6318C223.746 13.3217 224.562 14.0349 225.584 14.0349C227.567 14.0349 228.878 10.7379 230.603 10.0661C234.526 8.58811 237.418 7.51322 239.576 3.193C241.548 1.83905 244.305 0.578125 245.328 0.578125" fill="black"/>
</svg>
